<?xml version="1.0" encoding="UTF-8" standalone="no"?>
<!DOCTYPE svg PUBLIC "-//W3C//DTD SVG 1.1//EN" "http://www.w3.org/Graphics/SVG/1.1/DTD/svg11.dtd">
<svg width="100%" height="100%" viewBox="0 0 97 78" version="1.1" xmlns="http://www.w3.org/2000/svg" xmlns:xlink="http://www.w3.org/1999/xlink" xml:space="preserve" xmlns:serif="http://www.serif.com/" style="fill-rule:evenodd;clip-rule:evenodd;stroke-linejoin:round;stroke-miterlimit:2;">
    <g transform="matrix(1,0,0,1,-314,-67.669058)">
        <g id="logo-editable-v2_2" serif:id="logo editable v2_2">
            <g id="Group-1_2" serif:id="Group 1_2">
                <path id="Vector-2_2" serif:id="Vector 2_2" d="M361,139L367,145.5L405.5,118.5L367,91L361,98.5L397,116L361,139Z" style="fill:rgb(189,209,117);fill-rule:nonzero;"/>
                <path id="Vector-3_2" serif:id="Vector 3_2" d="M358.5,97.5L352.5,91L314,118L352.5,145.5L358.5,138L322.5,120.5L358.5,97.5Z" style="fill:rgb(189,209,117);fill-rule:nonzero;"/>
                <path id="Vector_2" d="M380.221,107.931C380.169,108.272 380.153,108.618 380.179,108.964C379.676,108.784 379.53,108.164 379.513,107.634C379.513,107.586 379.52,107.541 379.521,107.493L380.221,107.931ZM383.764,101.018C383.97,101.385 384.178,101.753 384.397,102.133C384.516,102.344 384.646,102.566 384.771,102.782C384.726,102.804 384.681,102.822 384.637,102.845C384.484,102.908 384.343,102.984 384.188,103.056C384.037,103.137 383.889,103.226 383.741,103.313L381.409,101.86C381.475,101.792 381.537,101.719 381.615,101.664C381.878,101.476 382.196,101.374 382.51,101.292C382.897,101.184 383.327,101.076 383.764,101.018ZM386.632,110.115C386.646,110.385 386.649,110.668 386.657,110.944L385.526,110.242C385.755,110.055 385.978,109.855 386.183,109.632C386.325,109.484 386.452,109.318 386.584,109.154C386.601,109.475 386.619,109.795 386.632,110.115ZM386.513,107.757C386.239,108.222 385.931,108.667 385.561,109.058C384.698,109.985 383.495,110.661 382.222,110.709C382.785,110.1 383.35,109.48 383.734,108.76C384.112,108.071 384.326,107.313 384.496,106.548C384.719,105.584 384.872,104.603 384.984,103.615C384.992,103.51 385.004,103.414 385.014,103.316L386.489,105.716C386.484,105.901 386.483,106.08 386.483,106.24C386.476,106.747 386.49,107.253 386.513,107.757ZM380.919,70.116C380.533,70.035 380.179,70.026 379.858,70.084C379.946,69.807 380.077,69.56 380.277,69.376C380.538,69.134 380.874,68.993 381.206,68.863C383.15,68.104 385.226,67.62 387.316,67.673C387.999,67.691 388.684,67.769 389.353,67.91C390.735,68.199 392.056,68.757 393.175,69.609C395.578,71.442 396.805,74.382 397.826,77.215C400.321,84.129 402.23,91.522 401.561,98.764L401.391,98.414L400.253,96.066C399.226,93.934 398.188,91.797 397.15,89.66C396.361,88.026 395.544,86.336 394.641,84.692C393.927,83.4 393.055,81.933 391.699,80.869C390.956,80.286 390.137,79.896 389.265,79.713C388.102,79.469 386.94,79.614 385.904,80.082C386.075,79.881 386.243,79.679 386.401,79.476C386.868,79.346 387.298,79.158 387.689,78.983C387.809,78.929 388.09,78.803 388.274,78.506C388.477,78.176 388.488,77.788 388.308,77.35C388.302,77.336 388.293,77.32 388.286,77.305C388.467,77.123 388.639,76.933 388.797,76.738C389.788,75.503 390.531,73.948 390.313,72.381C390.04,70.423 388.103,68.837 386.118,68.95C384.549,69.04 383.526,69.856 382.945,70.976C382.701,70.827 382.452,70.693 382.203,70.574C381.726,70.347 381.307,70.197 380.919,70.116ZM390.277,134.844C390.379,134.865 390.471,134.884 390.574,134.895C389.876,136.456 389.1,137.979 388.268,139.471C387.654,140.575 386.987,141.679 386.017,142.509C385.738,142.754 385.362,142.975 385.014,142.902C384.972,142.894 384.931,142.881 384.891,142.864C384.435,142.663 384.392,142.053 384.434,141.555C384.92,134.231 386.441,126.966 387.158,119.68C387.177,119.761 387.202,119.84 387.22,119.921C387.276,120.162 387.317,120.405 387.363,120.647C387.447,121.115 387.518,121.587 387.568,122.063C387.574,122.106 387.577,122.147 387.582,122.189C387.723,123.586 387.746,125.01 387.768,126.408L387.769,126.501C387.781,127.155 387.797,127.821 387.819,128.488C387.859,129.732 387.937,130.981 388.143,132.213C388.213,132.639 388.314,133.117 388.537,133.555C388.583,133.645 388.643,133.728 388.7,133.812C388.736,133.867 388.762,133.924 388.803,133.974C388.823,133.998 388.847,134.018 388.868,134.041C388.943,134.126 389.019,134.21 389.105,134.284C389.156,134.327 389.213,134.361 389.266,134.4C389.329,134.443 389.388,134.491 389.455,134.53C389.529,134.574 389.607,134.605 389.683,134.641C389.737,134.665 389.787,134.694 389.842,134.714C389.986,134.768 390.129,134.813 390.277,134.844ZM395.575,116.321C394.956,122.433 393.384,128.442 390.95,134.066C390.774,134.063 390.599,134.047 390.434,134.012C390.053,133.932 389.713,133.758 389.467,133.449C389.173,133.081 389.062,132.541 388.981,132.071C388.678,130.226 388.649,128.291 388.617,126.419C388.571,123.5 388.526,120.474 387.425,117.682C387.397,117.612 387.376,117.556 387.346,117.497C387.524,115.036 387.596,112.562 387.479,110.082C387.44,109.085 387.376,108.084 387.351,107.08C387.705,107.624 388.054,108.141 388.398,108.607C389.285,109.819 390.292,110.954 391.247,112.002C391.485,112.254 391.723,112.5 391.959,112.749L391.948,112.745L392.158,112.957C392.36,113.168 392.56,113.383 392.764,113.591L392.899,113.731L392.935,113.743L394.305,115.129C394.726,115.537 395.151,115.928 395.575,116.321ZM384.527,73.961C385.895,74.948 387.056,76.539 387.523,77.669C387.576,77.796 387.623,77.946 387.55,78.063C387.504,78.138 387.418,78.178 387.336,78.214C386.803,78.454 386.259,78.696 385.678,78.77C385.107,78.842 384.533,78.749 383.968,78.63C383.865,78.609 383.762,78.587 383.66,78.564C383.449,78.518 383.237,78.469 383.028,78.41C382.966,78.199 382.924,77.984 382.907,77.764C382.843,76.928 383.115,76.08 383.653,75.434C383.702,75.375 383.753,75.317 383.805,75.259C384.023,75.014 384.269,74.736 384.431,74.352C384.483,74.228 384.5,74.093 384.527,73.961ZM378.894,72.547C379.054,71.104 379.767,70.735 380.746,70.94C381.082,71.011 381.448,71.147 381.835,71.333C382.378,71.592 382.92,71.893 383.303,72.355C383.684,72.817 383.879,73.475 383.647,74.026C383.508,74.361 383.232,74.618 382.999,74.896C382.325,75.703 381.982,76.777 382.061,77.826C382.142,78.874 382.645,79.885 383.435,80.587C381.543,79.186 379.521,77.598 378.971,75.319C378.755,74.416 378.791,73.47 378.894,72.547ZM399.489,96.43C400.253,98.003 401.007,99.563 401.771,101.136C402.452,102.544 403.133,103.952 403.8,105.377C400.725,107.136 397.003,107.831 393.252,107.045C390.518,106.471 388.023,105.157 386.031,103.274C384.775,101.113 383.523,98.943 382.433,96.701C381.804,95.399 381.218,94.042 381.019,92.61C380.526,89.196 382.215,85.892 383.973,82.93C385.094,81.038 387.118,80.124 389.091,80.538C389.806,80.688 390.517,81.013 391.174,81.531C392.368,82.466 393.173,83.784 393.897,85.096C394.788,86.716 395.587,88.37 396.386,90.024C397.424,92.16 398.462,94.296 399.489,96.43ZM393.04,108.055C397.004,108.887 400.965,108.167 404.23,106.312C405.041,108.063 405.817,109.827 406.525,111.61C403.349,113.601 399.418,114.431 395.444,113.598C394.742,113.45 394.052,113.253 393.372,113.006C392.866,112.489 392.371,111.962 391.876,111.437C390.901,110.369 389.94,109.281 389.082,108.11C388.519,107.349 387.997,106.555 387.499,105.743C389.166,106.843 391.038,107.635 393.04,108.055ZM408.743,118.136C406.713,119.419 404.368,120.224 401.919,120.417C401.919,120.419 401.918,120.421 401.915,120.421C401.913,120.42 401.91,120.415 401.91,120.415C399.425,118.648 397.093,116.662 394.899,114.527C395.009,114.561 395.12,114.584 395.232,114.607C399.401,115.482 403.544,114.644 406.908,112.576C407.605,114.411 408.235,116.26 408.743,118.136ZM409.024,119.177C409.517,121.126 409.889,123.1 410.082,125.112C407.661,124.055 405.373,122.773 403.187,121.305C405.27,120.983 407.251,120.248 409.024,119.177ZM386.047,72.266C385.473,72.146 385.106,71.588 385.226,71.019C385.345,70.45 385.905,70.086 386.479,70.206C387.051,70.326 387.418,70.885 387.299,71.454C387.18,72.023 386.62,72.386 386.047,72.266Z" style="fill:rgb(111,208,216);fill-rule:nonzero;"/>
            </g>
        </g>
    </g>
</svg>
