<?xml version="1.0" encoding="UTF-8" standalone="no"?>
<!DOCTYPE svg PUBLIC "-//W3C//DTD SVG 1.1//EN" "http://www.w3.org/Graphics/SVG/1.1/DTD/svg11.dtd">
<svg width="100%" height="100%" viewBox="0 0 170 118" version="1.1" xmlns="http://www.w3.org/2000/svg" xmlns:xlink="http://www.w3.org/1999/xlink" xml:space="preserve" xmlns:serif="http://www.serif.com/" style="fill-rule:evenodd;clip-rule:evenodd;stroke-linejoin:round;stroke-miterlimit:2;">
    <g transform="matrix(1,0,0,1,-62.65,-46.669158)">
        <g id="logo-vertical-v2" serif:id="logo vertical v2">
            <g id="Group-1_3" serif:id="Group 1_3">
                <path id="Vector-2_3" serif:id="Vector 2_3" d="M138,118L144,124.5L182.5,97.5L144,70L138,77.5L174,95L138,118Z" style="fill:rgb(189,209,117);fill-rule:nonzero;"/>
                <path id="Vector-3_3" serif:id="Vector 3_3" d="M135.5,76.5L129.5,70L91,97L129.5,124.5L135.5,117L99.5,99.501L135.5,76.5Z" style="fill:rgb(189,209,117);fill-rule:nonzero;"/>
                <path id="Vector_3" d="M157.221,86.931C157.169,87.272 157.153,87.618 157.179,87.964C156.676,87.784 156.53,87.165 156.513,86.634C156.513,86.586 156.52,86.541 156.521,86.493L157.221,86.931ZM160.764,80.018C160.97,80.385 161.178,80.753 161.397,81.133C161.516,81.344 161.646,81.567 161.771,81.783C161.726,81.804 161.681,81.822 161.637,81.846C161.484,81.908 161.343,81.984 161.188,82.057C161.037,82.137 160.889,82.226 160.741,82.313L158.409,80.86C158.475,80.792 158.537,80.719 158.615,80.664C158.878,80.476 159.196,80.374 159.51,80.292C159.897,80.184 160.327,80.076 160.764,80.018ZM163.632,89.115C163.646,89.386 163.649,89.668 163.657,89.945L162.526,89.242C162.755,89.055 162.978,88.855 163.183,88.632C163.325,88.484 163.452,88.318 163.584,88.154C163.601,88.475 163.619,88.796 163.632,89.115ZM163.513,86.757C163.239,87.222 162.931,87.667 162.561,88.058C161.698,88.985 160.495,89.661 159.222,89.709C159.785,89.101 160.35,88.48 160.734,87.76C161.112,87.071 161.326,86.313 161.496,85.548C161.719,84.584 161.872,83.603 161.984,82.615C161.992,82.51 162.004,82.414 162.014,82.316L163.489,84.716C163.484,84.901 163.483,85.08 163.483,85.24C163.476,85.747 163.49,86.254 163.513,86.757ZM157.919,49.116C157.533,49.035 157.179,49.026 156.858,49.084C156.946,48.807 157.077,48.56 157.277,48.376C157.538,48.134 157.874,47.993 158.206,47.864C160.15,47.104 162.226,46.62 164.316,46.673C164.999,46.691 165.684,46.769 166.353,46.91C167.735,47.2 169.056,47.757 170.175,48.609C172.578,50.442 173.805,53.382 174.826,56.215C177.321,63.13 179.23,70.522 178.561,77.765L178.391,77.415L177.253,75.067C176.226,72.934 175.188,70.797 174.15,68.66C173.361,67.026 172.544,65.336 171.641,63.693C170.927,62.4 170.055,60.933 168.699,59.869C167.956,59.286 167.137,58.896 166.265,58.713C165.102,58.469 163.94,58.614 162.904,59.082C163.075,58.881 163.243,58.679 163.401,58.477C163.868,58.346 164.298,58.158 164.689,57.983C164.809,57.929 165.09,57.803 165.274,57.506C165.477,57.176 165.488,56.788 165.308,56.35C165.302,56.337 165.293,56.32 165.286,56.305C165.467,56.123 165.639,55.933 165.797,55.738C166.788,54.504 167.531,52.948 167.313,51.381C167.04,49.423 165.103,47.837 163.118,47.95C161.549,48.04 160.526,48.856 159.945,49.976C159.701,49.827 159.452,49.694 159.203,49.574C158.726,49.347 158.307,49.197 157.919,49.116ZM167.277,113.844C167.379,113.865 167.471,113.885 167.574,113.895C166.876,115.456 166.1,116.979 165.268,118.471C164.654,119.575 163.987,120.679 163.017,121.509C162.738,121.754 162.362,121.976 162.014,121.903C161.972,121.894 161.931,121.881 161.891,121.864C161.435,121.663 161.392,121.053 161.434,120.556C161.92,113.231 163.441,105.966 164.158,98.68C164.177,98.761 164.202,98.84 164.22,98.921C164.276,99.162 164.317,99.405 164.363,99.647C164.447,100.115 164.518,100.587 164.568,101.063C164.574,101.106 164.577,101.148 164.582,101.189C164.723,102.586 164.746,104.01 164.768,105.408L164.769,105.501C164.781,106.155 164.797,106.821 164.819,107.488C164.859,108.732 164.937,109.981 165.143,111.213C165.213,111.639 165.314,112.117 165.537,112.556C165.583,112.645 165.643,112.728 165.7,112.813C165.736,112.867 165.762,112.924 165.803,112.974C165.823,112.998 165.847,113.018 165.868,113.041C165.943,113.126 166.019,113.21 166.105,113.284C166.156,113.327 166.213,113.361 166.266,113.4C166.329,113.444 166.388,113.491 166.455,113.53C166.529,113.574 166.607,113.605 166.683,113.641C166.737,113.665 166.787,113.694 166.842,113.714C166.986,113.768 167.129,113.813 167.277,113.844ZM172.575,95.322C171.956,101.433 170.384,107.443 167.95,113.066C167.774,113.063 167.599,113.047 167.434,113.013C167.053,112.933 166.713,112.758 166.467,112.45C166.173,112.081 166.062,111.541 165.981,111.071C165.678,109.226 165.649,107.291 165.617,105.419C165.571,102.5 165.526,99.474 164.425,96.682C164.397,96.612 164.376,96.556 164.346,96.497C164.524,94.036 164.596,91.563 164.479,89.082C164.44,88.085 164.376,87.084 164.351,86.08C164.705,86.624 165.054,87.141 165.398,87.608C166.285,88.819 167.292,89.954 168.247,91.002C168.485,91.254 168.723,91.5 168.959,91.749L168.948,91.745L169.158,91.957C169.36,92.169 169.56,92.383 169.764,92.592L169.899,92.731L169.935,92.743L171.305,94.129C171.726,94.537 172.151,94.928 172.575,95.322ZM161.527,52.961C162.895,53.949 164.056,55.54 164.523,56.669C164.576,56.796 164.623,56.946 164.55,57.063C164.504,57.138 164.418,57.178 164.336,57.214C163.803,57.454 163.259,57.696 162.678,57.771C162.107,57.842 161.533,57.749 160.968,57.631C160.865,57.609 160.762,57.587 160.66,57.564C160.449,57.518 160.237,57.469 160.028,57.41C159.966,57.199 159.924,56.984 159.907,56.764C159.843,55.928 160.115,55.08 160.653,54.435C160.702,54.375 160.753,54.317 160.805,54.259C161.023,54.014 161.269,53.736 161.431,53.352C161.483,53.228 161.5,53.093 161.527,52.961ZM155.894,51.547C156.054,50.104 156.767,49.735 157.746,49.941C158.082,50.011 158.448,50.148 158.835,50.333C159.378,50.592 159.92,50.893 160.303,51.355C160.684,51.817 160.879,52.476 160.647,53.026C160.508,53.361 160.232,53.618 159.999,53.896C159.325,54.703 158.982,55.777 159.061,56.826C159.142,57.874 159.645,58.885 160.435,59.587C158.543,58.186 156.521,56.599 155.971,54.319C155.755,53.416 155.791,52.471 155.894,51.547ZM176.489,75.43C177.253,77.003 178.007,78.563 178.771,80.136C179.452,81.544 180.133,82.952 180.8,84.377C177.725,86.136 174.003,86.831 170.252,86.045C167.518,85.471 165.023,84.157 163.031,82.274C161.775,80.114 160.523,77.943 159.433,75.701C158.804,74.399 158.218,73.042 158.019,71.61C157.526,68.196 159.215,64.892 160.973,61.93C162.094,60.038 164.118,59.124 166.091,59.538C166.806,59.688 167.517,60.013 168.174,60.531C169.368,61.466 170.173,62.784 170.897,64.096C171.788,65.716 172.587,67.37 173.386,69.024C174.424,71.161 175.462,73.296 176.489,75.43ZM170.04,87.055C174.004,87.887 177.965,87.167 181.23,85.312C182.041,87.063 182.817,88.827 183.525,90.61C180.349,92.602 176.418,93.431 172.444,92.598C171.742,92.451 171.052,92.254 170.372,92.006C169.866,91.489 169.371,90.962 168.876,90.437C167.901,89.37 166.94,88.281 166.082,87.11C165.519,86.349 164.997,85.555 164.499,84.743C166.166,85.843 168.038,86.635 170.04,87.055ZM185.743,97.136C183.713,98.419 181.368,99.224 178.919,99.417C178.919,99.419 178.918,99.421 178.915,99.421C178.913,99.42 178.91,99.415 178.91,99.415C176.425,97.648 174.093,95.662 171.899,93.527C172.009,93.561 172.12,93.584 172.232,93.608C176.401,94.482 180.544,93.644 183.908,91.576C184.605,93.411 185.235,95.26 185.743,97.136ZM186.024,98.177C186.517,100.126 186.889,102.1 187.082,104.112C184.661,103.055 182.373,101.774 180.187,100.305C182.27,99.983 184.251,99.248 186.024,98.177ZM163.047,51.266C162.473,51.146 162.106,50.588 162.226,50.019C162.345,49.45 162.905,49.086 163.479,49.206C164.051,49.326 164.418,49.885 164.299,50.454C164.18,51.023 163.62,51.387 163.047,51.266Z" style="fill:rgb(111,208,216);fill-rule:nonzero;"/>
            </g>
            <path id="carlosguisan_2" d="M69.73,142.7C70.75,142.7 71.66,142.86 72.46,143.18C73.26,143.5 73.94,143.96 74.5,144.56C75.06,145.16 75.49,145.89 75.79,146.75L74.38,147.41C74.06,146.33 73.5,145.5 72.7,144.92C71.92,144.32 70.92,144.02 69.7,144.02C68.6,144.02 67.63,144.28 66.79,144.8C65.95,145.3 65.3,146.04 64.84,147.02C64.38,147.98 64.15,149.14 64.15,150.5C64.15,151.84 64.38,153 64.84,153.98C65.3,154.96 65.94,155.71 66.76,156.23C67.58,156.73 68.55,156.98 69.67,156.98C70.51,156.98 71.27,156.84 71.95,156.56C72.65,156.28 73.22,155.87 73.66,155.33C74.12,154.79 74.42,154.15 74.56,153.41L75.94,153.89C75.68,154.81 75.25,155.6 74.65,156.26C74.07,156.92 73.36,157.43 72.52,157.79C71.68,158.13 70.74,158.3 69.7,158.3C68.34,158.3 67.12,157.99 66.04,157.37C64.98,156.75 64.15,155.86 63.55,154.7C62.95,153.52 62.65,152.12 62.65,150.5C62.65,148.88 62.95,147.49 63.55,146.33C64.17,145.15 65.01,144.25 66.07,143.63C67.15,143.01 68.37,142.7 69.73,142.7ZM89.139,148.13C89.139,146.83 88.789,145.82 88.089,145.1C87.389,144.38 86.389,144.02 85.089,144.02C83.949,144.02 82.969,144.27 82.149,144.77C81.329,145.25 80.719,146.06 80.319,147.2L79.089,146.42C79.529,145.24 80.259,144.33 81.279,143.69C82.319,143.03 83.599,142.7 85.119,142.7C86.219,142.7 87.179,142.9 87.999,143.3C88.839,143.68 89.489,144.25 89.949,145.01C90.409,145.77 90.639,146.72 90.639,147.86L90.639,155.36C90.639,156.42 91.119,156.95 92.079,156.95C92.499,156.95 92.859,156.88 93.159,156.74L93.069,157.94C92.729,158.12 92.289,158.21 91.749,158.21C91.289,158.21 90.859,158.12 90.459,157.94C90.059,157.76 89.729,157.46 89.469,157.04C89.229,156.62 89.109,156.05 89.109,155.33L89.109,154.52L89.529,154.49C89.349,155.35 88.949,156.07 88.329,156.65C87.729,157.21 87.029,157.63 86.229,157.91C85.429,158.17 84.629,158.3 83.829,158.3C82.889,158.3 82.049,158.15 81.309,157.85C80.569,157.55 79.989,157.12 79.569,156.56C79.149,155.98 78.939,155.27 78.939,154.43C78.939,153.31 79.309,152.41 80.049,151.73C80.809,151.03 81.869,150.55 83.229,150.29L89.439,149.06L89.439,150.32L83.979,151.4C82.799,151.64 81.919,151.99 81.339,152.45C80.759,152.91 80.469,153.54 80.469,154.34C80.469,155.16 80.779,155.81 81.399,156.29C82.019,156.75 82.899,156.98 84.039,156.98C84.619,156.98 85.209,156.9 85.809,156.74C86.409,156.58 86.959,156.33 87.459,155.99C87.979,155.63 88.389,155.19 88.689,154.67C88.989,154.13 89.139,153.48 89.139,152.72L89.139,148.13ZM96.248,158L96.248,143L97.508,143L97.688,146.15C98.068,145.09 98.678,144.25 99.518,143.63C100.358,143.01 101.368,142.7 102.548,142.7C102.948,142.7 103.308,142.74 103.628,142.82C103.948,142.9 104.208,143.03 104.408,143.21L104.078,144.53C103.858,144.39 103.618,144.28 103.358,144.2C103.098,144.12 102.708,144.08 102.188,144.08C101.428,144.08 100.708,144.32 100.028,144.8C99.348,145.26 98.798,145.91 98.378,146.75C97.958,147.57 97.748,148.52 97.748,149.6L97.748,158L96.248,158ZM108.966,136.1L108.966,154.46C108.966,155.38 109.126,156.03 109.446,156.41C109.766,156.79 110.266,156.98 110.946,156.98C111.366,156.98 111.696,156.95 111.936,156.89C112.196,156.83 112.496,156.73 112.836,156.59L112.626,157.91C112.366,158.03 112.066,158.12 111.726,158.18C111.406,158.26 111.046,158.3 110.646,158.3C109.586,158.3 108.786,158 108.246,157.4C107.726,156.78 107.466,155.82 107.466,154.52L107.466,136.1L108.966,136.1ZM121.821,142.7C123.221,142.7 124.451,143.01 125.511,143.63C126.591,144.25 127.431,145.15 128.031,146.33C128.651,147.49 128.961,148.88 128.961,150.5C128.961,152.12 128.651,153.52 128.031,154.7C127.431,155.86 126.591,156.75 125.511,157.37C124.451,157.99 123.221,158.3 121.821,158.3C120.421,158.3 119.181,157.99 118.101,157.37C117.041,156.75 116.201,155.86 115.581,154.7C114.981,153.52 114.681,152.12 114.681,150.5C114.681,148.88 114.981,147.49 115.581,146.33C116.201,145.15 117.041,144.25 118.101,143.63C119.181,143.01 120.421,142.7 121.821,142.7ZM121.821,143.99C120.681,143.99 119.691,144.25 118.851,144.77C118.011,145.29 117.351,146.04 116.871,147.02C116.411,147.98 116.181,149.14 116.181,150.5C116.181,151.84 116.411,153 116.871,153.98C117.351,154.96 118.011,155.71 118.851,156.23C119.691,156.75 120.681,157.01 121.821,157.01C122.961,157.01 123.951,156.75 124.791,156.23C125.631,155.71 126.281,154.96 126.741,153.98C127.221,153 127.461,151.84 127.461,150.5C127.461,149.14 127.221,147.98 126.741,147.02C126.281,146.04 125.631,145.29 124.791,144.77C123.951,144.25 122.961,143.99 121.821,143.99ZM138.32,158.3C136.8,158.3 135.45,157.99 134.27,157.37C133.11,156.75 132.29,155.86 131.81,154.7L133.1,153.83C133.46,154.83 134.1,155.61 135.02,156.17C135.96,156.71 137.1,156.98 138.44,156.98C139.76,156.98 140.79,156.72 141.53,156.2C142.29,155.68 142.67,154.99 142.67,154.13C142.67,153.55 142.48,153.05 142.1,152.63C141.74,152.19 141.05,151.86 140.03,151.64L136.52,150.89C135.08,150.59 134.05,150.11 133.43,149.45C132.83,148.77 132.53,147.95 132.53,146.99C132.53,146.19 132.77,145.47 133.25,144.83C133.73,144.19 134.39,143.68 135.23,143.3C136.09,142.9 137.09,142.7 138.23,142.7C139.73,142.7 140.97,143 141.95,143.6C142.93,144.18 143.62,145.06 144.02,146.24L142.76,147.05C142.46,145.99 141.9,145.22 141.08,144.74C140.28,144.26 139.33,144.02 138.23,144.02C137.39,144.02 136.65,144.15 136.01,144.41C135.39,144.65 134.9,144.99 134.54,145.43C134.2,145.85 134.03,146.34 134.03,146.9C134.03,147.48 134.23,148.01 134.63,148.49C135.03,148.95 135.74,149.29 136.76,149.51L140.36,150.29C141.78,150.59 142.77,151.05 143.33,151.67C143.89,152.27 144.17,153.02 144.17,153.92C144.17,154.82 143.93,155.6 143.45,156.26C142.97,156.92 142.29,157.43 141.41,157.79C140.53,158.13 139.5,158.3 138.32,158.3ZM160.787,140.24L161.147,141.56L160.997,141.56C160.017,141.56 159.257,141.82 158.717,142.34C158.197,142.84 157.937,143.55 157.937,144.47L156.977,143.99C156.977,143.23 157.137,142.57 157.457,142.01C157.777,141.45 158.217,141.02 158.777,140.72C159.337,140.4 159.967,140.24 160.667,140.24L160.787,140.24ZM156.047,156.47C157.527,156.47 158.687,156.78 159.527,157.4C160.367,158.02 160.787,158.85 160.787,159.89C160.787,160.81 160.477,161.61 159.857,162.29C159.257,162.97 158.427,163.5 157.367,163.88C156.307,164.26 155.097,164.45 153.737,164.45C151.477,164.45 149.747,164.06 148.547,163.28C147.347,162.52 146.747,161.56 146.747,160.4C146.747,159.56 147.047,158.83 147.647,158.21C148.267,157.59 149.167,157.22 150.347,157.1L150.227,157.37C149.587,157.19 149.017,156.89 148.517,156.47C148.037,156.05 147.797,155.45 147.797,154.67C147.797,153.83 148.107,153.15 148.727,152.63C149.367,152.09 150.207,151.78 151.247,151.7L152.837,152.24L152.207,152.24C151.287,152.3 150.547,152.53 149.987,152.93C149.447,153.31 149.177,153.81 149.177,154.43C149.177,155.11 149.437,155.62 149.957,155.96C150.497,156.3 151.177,156.47 151.997,156.47L156.047,156.47ZM153.737,163.19C154.917,163.19 155.927,163.05 156.767,162.77C157.607,162.49 158.247,162.11 158.687,161.63C159.147,161.17 159.377,160.65 159.377,160.07C159.377,159.37 159.067,158.81 158.447,158.39C157.847,157.97 156.927,157.76 155.687,157.76L151.427,157.76C150.487,157.76 149.707,157.98 149.087,158.42C148.467,158.86 148.157,159.45 148.157,160.19C148.157,161.09 148.647,161.81 149.627,162.35C150.627,162.91 151.997,163.19 153.737,163.19ZM153.527,142.7C154.707,142.7 155.747,142.91 156.647,143.33C157.567,143.73 158.277,144.3 158.777,145.04C159.277,145.76 159.527,146.61 159.527,147.59C159.527,148.55 159.277,149.41 158.777,150.17C158.277,150.91 157.567,151.49 156.647,151.91C155.747,152.31 154.707,152.51 153.527,152.51C151.627,152.51 150.137,152.06 149.057,151.16C147.997,150.24 147.467,149.05 147.467,147.59C147.467,146.61 147.717,145.76 148.217,145.04C148.737,144.3 149.447,143.73 150.347,143.33C151.267,142.91 152.327,142.7 153.527,142.7ZM153.527,143.93C152.207,143.93 151.127,144.27 150.287,144.95C149.447,145.61 149.027,146.49 149.027,147.59C149.027,148.69 149.447,149.58 150.287,150.26C151.127,150.94 152.207,151.28 153.527,151.28C154.847,151.28 155.917,150.94 156.737,150.26C157.577,149.58 157.997,148.69 157.997,147.59C157.997,146.49 157.577,145.61 156.737,144.95C155.917,144.27 154.847,143.93 153.527,143.93ZM169.087,158.3C168.047,158.3 167.117,158.11 166.297,157.73C165.477,157.35 164.827,156.76 164.347,155.96C163.887,155.14 163.657,154.12 163.657,152.9L163.657,143L165.157,143L165.157,152.54C165.157,154.1 165.527,155.23 166.267,155.93C167.027,156.63 168.087,156.98 169.447,156.98C170.247,156.98 170.967,156.84 171.607,156.56C172.267,156.28 172.827,155.89 173.287,155.39C173.747,154.89 174.097,154.32 174.337,153.68C174.597,153.04 174.727,152.35 174.727,151.61L174.727,143L176.227,143L176.227,158L174.877,158L174.817,154.91C174.377,155.97 173.657,156.8 172.657,157.4C171.657,158 170.467,158.3 169.087,158.3ZM182.311,140.09C181.931,140.09 181.621,139.98 181.381,139.76C181.161,139.52 181.051,139.21 181.051,138.83C181.051,138.45 181.161,138.15 181.381,137.93C181.621,137.69 181.931,137.57 182.311,137.57C182.691,137.57 182.991,137.69 183.211,137.93C183.451,138.15 183.571,138.45 183.571,138.83C183.571,139.21 183.451,139.52 183.211,139.76C182.991,139.98 182.691,140.09 182.311,140.09ZM183.061,143L183.061,158L181.561,158L181.561,143L183.061,143ZM193.457,158.3C191.937,158.3 190.587,157.99 189.407,157.37C188.247,156.75 187.427,155.86 186.947,154.7L188.237,153.83C188.597,154.83 189.237,155.61 190.157,156.17C191.097,156.71 192.237,156.98 193.577,156.98C194.897,156.98 195.927,156.72 196.667,156.2C197.427,155.68 197.807,154.99 197.807,154.13C197.807,153.55 197.617,153.05 197.237,152.63C196.877,152.19 196.187,151.86 195.167,151.64L191.657,150.89C190.217,150.59 189.187,150.11 188.567,149.45C187.967,148.77 187.667,147.95 187.667,146.99C187.667,146.19 187.907,145.47 188.387,144.83C188.867,144.19 189.527,143.68 190.367,143.3C191.227,142.9 192.227,142.7 193.367,142.7C194.867,142.7 196.107,143 197.087,143.6C198.067,144.18 198.757,145.06 199.157,146.24L197.897,147.05C197.597,145.99 197.037,145.22 196.217,144.74C195.417,144.26 194.467,144.02 193.367,144.02C192.527,144.02 191.787,144.15 191.147,144.41C190.527,144.65 190.037,144.99 189.677,145.43C189.337,145.85 189.167,146.34 189.167,146.9C189.167,147.48 189.367,148.01 189.767,148.49C190.167,148.95 190.877,149.29 191.897,149.51L195.497,150.29C196.917,150.59 197.907,151.05 198.467,151.67C199.027,152.27 199.307,153.02 199.307,153.92C199.307,154.82 199.067,155.6 198.587,156.26C198.107,156.92 197.427,157.43 196.547,157.79C195.667,158.13 194.637,158.3 193.457,158.3ZM212.684,148.13C212.684,146.83 212.334,145.82 211.634,145.1C210.934,144.38 209.934,144.02 208.634,144.02C207.494,144.02 206.514,144.27 205.694,144.77C204.874,145.25 204.264,146.06 203.864,147.2L202.634,146.42C203.074,145.24 203.804,144.33 204.824,143.69C205.864,143.03 207.144,142.7 208.664,142.7C209.764,142.7 210.724,142.9 211.544,143.3C212.384,143.68 213.034,144.25 213.494,145.01C213.954,145.77 214.184,146.72 214.184,147.86L214.184,155.36C214.184,156.42 214.664,156.95 215.624,156.95C216.044,156.95 216.404,156.88 216.704,156.74L216.614,157.94C216.274,158.12 215.834,158.21 215.294,158.21C214.834,158.21 214.404,158.12 214.004,157.94C213.604,157.76 213.274,157.46 213.014,157.04C212.774,156.62 212.654,156.05 212.654,155.33L212.654,154.52L213.074,154.49C212.894,155.35 212.494,156.07 211.874,156.65C211.274,157.21 210.574,157.63 209.774,157.91C208.974,158.17 208.174,158.3 207.374,158.3C206.434,158.3 205.594,158.15 204.854,157.85C204.114,157.55 203.534,157.12 203.114,156.56C202.694,155.98 202.484,155.27 202.484,154.43C202.484,153.31 202.854,152.41 203.594,151.73C204.354,151.03 205.414,150.55 206.774,150.29L212.984,149.06L212.984,150.32L207.524,151.4C206.344,151.64 205.464,151.99 204.884,152.45C204.304,152.91 204.014,153.54 204.014,154.34C204.014,155.16 204.324,155.81 204.944,156.29C205.564,156.75 206.444,156.98 207.584,156.98C208.164,156.98 208.754,156.9 209.354,156.74C209.954,156.58 210.504,156.33 211.004,155.99C211.524,155.63 211.934,155.19 212.234,154.67C212.534,154.13 212.684,153.48 212.684,152.72L212.684,148.13ZM219.793,158L219.793,143L221.143,143L221.263,146.75L221.023,146.54C221.303,145.72 221.723,145.03 222.283,144.47C222.843,143.89 223.513,143.45 224.293,143.15C225.073,142.85 225.913,142.7 226.813,142.7C227.933,142.7 228.923,142.91 229.783,143.33C230.643,143.75 231.313,144.37 231.793,145.19C232.293,146.01 232.543,147.04 232.543,148.28L232.543,158L231.043,158L231.043,148.76C231.043,147.12 230.633,145.92 229.813,145.16C229.013,144.4 227.963,144.02 226.663,144.02C225.723,144.02 224.843,144.24 224.023,144.68C223.223,145.1 222.563,145.72 222.043,146.54C221.543,147.36 221.293,148.36 221.293,149.54L221.293,158L219.793,158Z" style="fill:white;fill-rule:nonzero;"/>
        </g>
    </g>
</svg>
