<?xml version="1.0" encoding="UTF-8" standalone="no"?>
<!DOCTYPE svg PUBLIC "-//W3C//DTD SVG 1.1//EN" "http://www.w3.org/Graphics/SVG/1.1/DTD/svg11.dtd">
<svg width="100%" height="100%" viewBox="0 0 357 78" version="1.1" xmlns="http://www.w3.org/2000/svg" xmlns:xlink="http://www.w3.org/1999/xlink" xml:space="preserve" xmlns:serif="http://www.serif.com/" style="fill-rule:evenodd;clip-rule:evenodd;stroke-linejoin:round;stroke-miterlimit:2;">
    <g transform="matrix(1,0,0,1,-56,-181.669045)">
        <g id="logo-editable-v2" serif:id="logo editable v2">
            <g id="Group-1" serif:id="Group 1">
                <path id="Vector-2" serif:id="Vector 2" d="M363,253L369,259.5L407.5,232.5L369,205L363,212.5L399,230L363,253Z" style="fill:rgb(189,209,117);fill-rule:nonzero;"/>
                <path id="Vector-3" serif:id="Vector 3" d="M100.5,206.5L94.5,200L56,227L94.5,254.5L100.5,247L64.5,229.5L100.5,206.5Z" style="fill:rgb(189,209,117);fill-rule:nonzero;"/>
                <path id="Vector" d="M382.221,221.931C382.169,222.272 382.153,222.618 382.18,222.964C381.676,222.784 381.53,222.165 381.513,221.634C381.513,221.586 381.52,221.541 381.521,221.493L382.221,221.931ZM385.764,215.018C385.97,215.385 386.178,215.753 386.397,216.133C386.516,216.344 386.646,216.567 386.771,216.783C386.726,216.804 386.681,216.822 386.637,216.845C386.484,216.908 386.343,216.984 386.188,217.057C386.037,217.137 385.889,217.226 385.741,217.313L383.409,215.86C383.476,215.792 383.538,215.719 383.615,215.664C383.878,215.476 384.197,215.374 384.51,215.292C384.897,215.184 385.327,215.076 385.764,215.018ZM388.632,224.115C388.646,224.386 388.649,224.668 388.657,224.945L387.526,224.242C387.755,224.055 387.978,223.855 388.183,223.632C388.325,223.484 388.452,223.318 388.584,223.154C388.601,223.475 388.619,223.796 388.632,224.115ZM388.513,221.757C388.239,222.222 387.931,222.667 387.561,223.058C386.698,223.985 385.495,224.661 384.222,224.709C384.785,224.101 385.35,223.48 385.734,222.76C386.112,222.071 386.326,221.313 386.496,220.548C386.719,219.584 386.872,218.603 386.984,217.615C386.992,217.51 387.004,217.414 387.014,217.316L388.489,219.716C388.484,219.901 388.483,220.08 388.483,220.24C388.476,220.747 388.49,221.254 388.513,221.757ZM382.919,184.116C382.533,184.035 382.179,184.026 381.858,184.084C381.946,183.807 382.077,183.56 382.277,183.376C382.538,183.134 382.874,182.993 383.206,182.864C385.15,182.104 387.226,181.62 389.316,181.673C389.999,181.692 390.684,181.769 391.353,181.91C392.735,182.199 394.056,182.757 395.175,183.609C397.578,185.442 398.805,188.382 399.826,191.215C402.321,198.13 404.23,205.522 403.561,212.765L403.391,212.415L402.253,210.067C401.226,207.934 400.188,205.797 399.15,203.66C398.361,202.026 397.544,200.336 396.641,198.693C395.927,197.4 395.055,195.933 393.699,194.869C392.956,194.286 392.137,193.896 391.265,193.713C390.102,193.47 388.94,193.614 387.904,194.082C388.075,193.881 388.243,193.679 388.401,193.476C388.868,193.347 389.298,193.158 389.689,192.983C389.809,192.929 390.09,192.803 390.274,192.506C390.477,192.176 390.488,191.788 390.308,191.35C390.302,191.336 390.293,191.32 390.286,191.305C390.467,191.123 390.64,190.933 390.797,190.738C391.788,189.504 392.531,187.948 392.313,186.381C392.04,184.423 390.103,182.837 388.118,182.95C386.549,183.04 385.526,183.856 384.945,184.976C384.701,184.827 384.452,184.694 384.203,184.574C383.726,184.347 383.307,184.197 382.919,184.116ZM392.277,248.844C392.379,248.865 392.471,248.885 392.574,248.895C391.876,250.456 391.1,251.979 390.268,253.471C389.654,254.575 388.987,255.679 388.017,256.509C387.738,256.754 387.362,256.976 387.014,256.903C386.972,256.894 386.931,256.881 386.891,256.864C386.435,256.663 386.392,256.053 386.434,255.556C386.921,248.231 388.441,240.966 389.158,233.68C389.177,233.761 389.202,233.84 389.22,233.921C389.276,234.162 389.317,234.405 389.363,234.647C389.447,235.115 389.518,235.587 389.568,236.063C389.574,236.106 389.577,236.148 389.582,236.189C389.723,237.586 389.746,239.01 389.768,240.408L389.769,240.501C389.781,241.155 389.797,241.821 389.819,242.488C389.859,243.732 389.937,244.981 390.143,246.213C390.213,246.639 390.314,247.117 390.537,247.556C390.583,247.645 390.643,247.728 390.7,247.813C390.736,247.867 390.762,247.924 390.803,247.974C390.823,247.998 390.847,248.018 390.868,248.041C390.943,248.126 391.019,248.21 391.105,248.284C391.156,248.327 391.213,248.361 391.266,248.4C391.329,248.444 391.388,248.491 391.455,248.53C391.529,248.574 391.607,248.605 391.683,248.641C391.737,248.665 391.787,248.694 391.842,248.714C391.986,248.768 392.129,248.813 392.277,248.844ZM397.575,230.321C396.956,236.433 395.384,242.443 392.95,248.066C392.774,248.063 392.6,248.047 392.434,248.013C392.053,247.933 391.713,247.758 391.467,247.45C391.173,247.081 391.062,246.541 390.981,246.071C390.678,244.226 390.649,242.291 390.617,240.419C390.571,237.5 390.526,234.474 389.425,231.682C389.397,231.612 389.376,231.556 389.346,231.497C389.524,229.036 389.596,226.563 389.479,224.082C389.44,223.085 389.376,222.084 389.351,221.08C389.705,221.624 390.054,222.141 390.398,222.608C391.285,223.819 392.292,224.955 393.247,226.002C393.485,226.254 393.723,226.5 393.959,226.749L393.948,226.745L394.158,226.958C394.36,227.169 394.56,227.383 394.764,227.592L394.899,227.731L394.935,227.743L396.305,229.129C396.726,229.537 397.151,229.928 397.575,230.321ZM386.527,187.961C387.895,188.948 389.056,190.54 389.523,191.669C389.576,191.796 389.623,191.946 389.55,192.063C389.504,192.138 389.418,192.178 389.336,192.214C388.803,192.454 388.26,192.696 387.678,192.771C387.107,192.842 386.533,192.749 385.968,192.631C385.865,192.609 385.762,192.587 385.66,192.564C385.449,192.518 385.237,192.469 385.028,192.41C384.966,192.199 384.924,191.984 384.907,191.764C384.843,190.928 385.115,190.08 385.653,189.435C385.702,189.375 385.753,189.317 385.805,189.259C386.023,189.014 386.269,188.736 386.431,188.352C386.483,188.228 386.5,188.093 386.527,187.961ZM380.894,186.548C381.054,185.104 381.767,184.735 382.746,184.941C383.082,185.011 383.448,185.148 383.835,185.333C384.378,185.592 384.92,185.893 385.303,186.355C385.684,186.817 385.879,187.476 385.647,188.026C385.508,188.361 385.232,188.618 384.999,188.896C384.325,189.703 383.983,190.777 384.061,191.826C384.142,192.874 384.645,193.885 385.435,194.587C383.543,193.186 381.521,191.598 380.971,189.319C380.755,188.416 380.791,187.471 380.894,186.548ZM401.489,210.43C402.253,212.003 403.007,213.563 403.771,215.136C404.452,216.544 405.133,217.952 405.8,219.377C402.725,221.136 399.003,221.831 395.252,221.045C392.518,220.471 390.023,219.157 388.031,217.274C386.775,215.113 385.523,212.943 384.433,210.701C383.804,209.399 383.218,208.042 383.019,206.61C382.526,203.196 384.215,199.892 385.973,196.93C387.094,195.038 389.118,194.124 391.091,194.538C391.806,194.688 392.517,195.013 393.174,195.531C394.368,196.466 395.174,197.784 395.897,199.096C396.788,200.716 397.587,202.37 398.386,204.024C399.424,206.161 400.462,208.296 401.489,210.43ZM395.04,222.055C399.004,222.887 402.965,222.167 406.23,220.312C407.041,222.063 407.817,223.827 408.525,225.61C405.349,227.602 401.418,228.431 397.444,227.598C396.742,227.451 396.052,227.254 395.372,227.006C394.866,226.489 394.371,225.962 393.876,225.437C392.901,224.37 391.941,223.281 391.082,222.11C390.519,221.349 389.997,220.555 389.499,219.743C391.166,220.843 393.038,221.635 395.04,222.055ZM410.743,232.136C408.713,233.419 406.368,234.224 403.919,234.417C403.919,234.419 403.918,234.421 403.915,234.421C403.913,234.42 403.91,234.415 403.91,234.415C401.425,232.648 399.093,230.663 396.899,228.527C397.009,228.561 397.12,228.584 397.232,228.608C401.401,229.482 405.544,228.644 408.908,226.576C409.605,228.411 410.235,230.26 410.743,232.136ZM411.025,233.177C411.517,235.126 411.889,237.1 412.082,239.112C409.661,238.055 407.373,236.774 405.188,235.305C407.27,234.983 409.251,234.248 411.025,233.177ZM388.047,186.266C387.473,186.146 387.106,185.588 387.226,185.019C387.345,184.45 387.905,184.086 388.479,184.206C389.051,184.326 389.418,184.885 389.299,185.454C389.18,186.023 388.62,186.387 388.047,186.266Z" style="fill:rgb(111,208,216);fill-rule:nonzero;"/>
            </g>
            <g id="carlosguisan-editable" serif:id="carlosguisan editable" transform="matrix(1.516889,0,0,1.516889,108.012934,242.862674)">
                <g transform="matrix(29,0,0,29,0,0)">
                    <path d="M0.291,-0.51C0.325,-0.51 0.355,-0.505 0.382,-0.494C0.408,-0.483 0.431,-0.468 0.45,-0.448C0.469,-0.428 0.483,-0.403 0.493,-0.375L0.446,-0.353C0.436,-0.389 0.417,-0.417 0.391,-0.437C0.364,-0.456 0.331,-0.466 0.29,-0.466C0.253,-0.466 0.221,-0.458 0.193,-0.44C0.165,-0.423 0.143,-0.399 0.128,-0.366C0.112,-0.334 0.105,-0.295 0.105,-0.25C0.105,-0.205 0.112,-0.167 0.128,-0.134C0.143,-0.102 0.164,-0.077 0.192,-0.06C0.22,-0.042 0.252,-0.034 0.289,-0.034C0.317,-0.034 0.343,-0.039 0.365,-0.048C0.388,-0.058 0.407,-0.071 0.422,-0.089C0.437,-0.107 0.447,-0.128 0.452,-0.153L0.498,-0.137C0.489,-0.107 0.475,-0.08 0.456,-0.058C0.436,-0.036 0.412,-0.02 0.384,-0.008C0.356,0.004 0.324,0.01 0.29,0.01C0.244,0.01 0.204,-0 0.168,-0.021C0.133,-0.042 0.105,-0.072 0.085,-0.111C0.065,-0.149 0.055,-0.196 0.055,-0.25C0.055,-0.304 0.065,-0.351 0.085,-0.39C0.106,-0.429 0.134,-0.458 0.169,-0.479C0.205,-0.5 0.246,-0.51 0.291,-0.51Z" style="fill:white;fill-rule:nonzero;"/>
                </g>
                <g transform="matrix(29,0,0,29,15.747,0)">
                    <path d="M0.395,-0.329C0.395,-0.372 0.384,-0.406 0.36,-0.43C0.337,-0.454 0.303,-0.466 0.26,-0.466C0.222,-0.466 0.189,-0.458 0.162,-0.441C0.134,-0.425 0.114,-0.398 0.101,-0.36L0.06,-0.386C0.075,-0.426 0.099,-0.456 0.134,-0.478C0.168,-0.499 0.211,-0.51 0.261,-0.51C0.297,-0.51 0.33,-0.504 0.357,-0.491C0.385,-0.478 0.407,-0.458 0.422,-0.433C0.438,-0.407 0.445,-0.376 0.445,-0.338L0.445,-0.088C0.445,-0.053 0.461,-0.035 0.493,-0.035C0.507,-0.035 0.519,-0.037 0.529,-0.042L0.526,-0.002C0.515,0.004 0.5,0.007 0.482,0.007C0.467,0.007 0.452,0.004 0.439,-0.002C0.426,-0.008 0.415,-0.018 0.407,-0.032C0.398,-0.046 0.394,-0.065 0.394,-0.089L0.394,-0.116L0.408,-0.117C0.402,-0.088 0.388,-0.064 0.368,-0.045C0.348,-0.027 0.325,-0.013 0.298,-0.004C0.272,0.005 0.245,0.01 0.218,0.01C0.187,0.01 0.159,0.005 0.134,-0.005C0.109,-0.015 0.09,-0.029 0.076,-0.048C0.062,-0.068 0.055,-0.091 0.055,-0.119C0.055,-0.157 0.068,-0.187 0.093,-0.21C0.118,-0.233 0.153,-0.249 0.198,-0.257L0.405,-0.298L0.405,-0.256L0.223,-0.22C0.184,-0.212 0.155,-0.201 0.135,-0.185C0.116,-0.169 0.106,-0.149 0.106,-0.122C0.106,-0.095 0.117,-0.073 0.137,-0.057C0.157,-0.042 0.187,-0.034 0.225,-0.034C0.244,-0.034 0.264,-0.036 0.284,-0.042C0.304,-0.047 0.322,-0.056 0.339,-0.068C0.356,-0.079 0.37,-0.094 0.38,-0.112C0.39,-0.13 0.395,-0.151 0.395,-0.176L0.395,-0.329Z" style="fill:white;fill-rule:nonzero;"/>
                </g>
                <g transform="matrix(29,0,0,29,31.494,0)">
                    <path d="M0.089,-0L0.089,-0.5L0.131,-0.5L0.137,-0.396C0.15,-0.43 0.17,-0.458 0.198,-0.479C0.226,-0.5 0.259,-0.51 0.299,-0.51C0.312,-0.51 0.324,-0.509 0.335,-0.506C0.346,-0.503 0.354,-0.499 0.361,-0.493L0.35,-0.449C0.343,-0.454 0.335,-0.457 0.326,-0.46C0.318,-0.462 0.305,-0.464 0.287,-0.464C0.262,-0.464 0.238,-0.456 0.215,-0.44C0.193,-0.425 0.174,-0.403 0.16,-0.375C0.146,-0.348 0.139,-0.316 0.139,-0.28L0.139,-0L0.089,-0Z" style="fill:white;fill-rule:nonzero;"/>
                </g>
                <g transform="matrix(29,0,0,29,42.456,0)">
                    <path d="M0.135,-0.73L0.135,-0.118C0.135,-0.087 0.141,-0.065 0.151,-0.053C0.162,-0.04 0.178,-0.034 0.201,-0.034C0.215,-0.034 0.226,-0.035 0.234,-0.037C0.243,-0.039 0.253,-0.042 0.264,-0.047L0.257,-0.003C0.248,0.001 0.238,0.004 0.227,0.007C0.216,0.009 0.204,0.01 0.191,0.01C0.155,0.01 0.129,-0 0.111,-0.021C0.094,-0.041 0.085,-0.073 0.085,-0.116L0.085,-0.73L0.135,-0.73Z" style="fill:white;fill-rule:nonzero;"/>
                </g>
                <g transform="matrix(29,0,0,29,50.286,0)">
                    <path d="M0.293,-0.51C0.34,-0.51 0.381,-0.5 0.416,-0.479C0.452,-0.458 0.48,-0.429 0.5,-0.39C0.521,-0.351 0.531,-0.304 0.531,-0.25C0.531,-0.196 0.521,-0.149 0.5,-0.111C0.48,-0.072 0.452,-0.042 0.416,-0.021C0.381,-0 0.34,0.01 0.293,0.01C0.247,0.01 0.205,-0 0.17,-0.021C0.134,-0.042 0.106,-0.072 0.085,-0.111C0.065,-0.149 0.055,-0.196 0.055,-0.25C0.055,-0.304 0.065,-0.351 0.085,-0.39C0.106,-0.429 0.134,-0.458 0.17,-0.479C0.205,-0.5 0.247,-0.51 0.293,-0.51ZM0.293,-0.467C0.255,-0.467 0.222,-0.458 0.194,-0.441C0.166,-0.423 0.144,-0.399 0.128,-0.366C0.113,-0.334 0.105,-0.295 0.105,-0.25C0.105,-0.205 0.113,-0.167 0.128,-0.134C0.144,-0.102 0.166,-0.077 0.194,-0.059C0.222,-0.042 0.255,-0.033 0.293,-0.033C0.331,-0.033 0.364,-0.042 0.392,-0.059C0.42,-0.077 0.442,-0.102 0.458,-0.134C0.473,-0.167 0.481,-0.205 0.481,-0.25C0.481,-0.295 0.473,-0.334 0.458,-0.366C0.442,-0.399 0.42,-0.423 0.392,-0.441C0.364,-0.458 0.331,-0.467 0.293,-0.467Z" style="fill:white;fill-rule:nonzero;"/>
                </g>
                <g transform="matrix(29,0,0,29,67.251,0)">
                    <path d="M0.258,0.01C0.207,0.01 0.163,-0 0.123,-0.021C0.084,-0.041 0.057,-0.071 0.041,-0.11L0.084,-0.139C0.096,-0.105 0.117,-0.079 0.148,-0.061C0.179,-0.043 0.217,-0.034 0.262,-0.034C0.306,-0.034 0.34,-0.042 0.366,-0.06C0.391,-0.077 0.403,-0.1 0.403,-0.129C0.403,-0.149 0.397,-0.165 0.385,-0.18C0.372,-0.194 0.349,-0.205 0.315,-0.212L0.198,-0.237C0.15,-0.247 0.116,-0.263 0.096,-0.285C0.076,-0.308 0.065,-0.335 0.065,-0.367C0.065,-0.393 0.073,-0.417 0.089,-0.439C0.105,-0.461 0.127,-0.478 0.156,-0.491C0.184,-0.504 0.217,-0.51 0.255,-0.51C0.305,-0.51 0.346,-0.5 0.379,-0.481C0.412,-0.461 0.435,-0.432 0.448,-0.392L0.406,-0.365C0.396,-0.4 0.377,-0.426 0.35,-0.442C0.323,-0.458 0.291,-0.466 0.255,-0.466C0.227,-0.466 0.202,-0.462 0.181,-0.454C0.16,-0.445 0.144,-0.434 0.132,-0.419C0.121,-0.405 0.115,-0.388 0.115,-0.37C0.115,-0.35 0.121,-0.333 0.135,-0.317C0.148,-0.302 0.172,-0.291 0.206,-0.283L0.326,-0.257C0.373,-0.247 0.406,-0.232 0.425,-0.212C0.444,-0.191 0.453,-0.166 0.453,-0.136C0.453,-0.106 0.445,-0.08 0.429,-0.058C0.413,-0.036 0.39,-0.019 0.361,-0.008C0.331,0.004 0.297,0.01 0.258,0.01Z" style="fill:white;fill-rule:nonzero;"/>
                </g>
                <g transform="matrix(29,0,0,29,81.867,0)">
                    <path d="M0.503,-0.592L0.515,-0.548L0.51,-0.548C0.477,-0.548 0.452,-0.539 0.435,-0.523C0.417,-0.506 0.408,-0.482 0.408,-0.451L0.376,-0.467C0.376,-0.492 0.382,-0.514 0.392,-0.533C0.403,-0.552 0.417,-0.566 0.436,-0.577C0.455,-0.587 0.476,-0.592 0.499,-0.592L0.503,-0.592ZM0.345,-0.051C0.394,-0.051 0.433,-0.041 0.461,-0.02C0.489,0.001 0.503,0.029 0.503,0.063C0.503,0.094 0.493,0.121 0.473,0.143C0.452,0.166 0.424,0.184 0.389,0.196C0.353,0.209 0.313,0.215 0.268,0.215C0.192,0.215 0.135,0.202 0.095,0.176C0.055,0.151 0.035,0.119 0.035,0.08C0.035,0.052 0.045,0.028 0.065,0.007C0.085,-0.014 0.115,-0.026 0.155,-0.03L0.151,-0.021C0.129,-0.027 0.11,-0.037 0.094,-0.051C0.078,-0.065 0.07,-0.085 0.07,-0.111C0.07,-0.139 0.08,-0.162 0.101,-0.18C0.122,-0.197 0.15,-0.208 0.185,-0.21L0.238,-0.192L0.217,-0.192C0.186,-0.19 0.162,-0.183 0.144,-0.17C0.125,-0.157 0.116,-0.14 0.116,-0.119C0.116,-0.096 0.125,-0.079 0.143,-0.068C0.16,-0.057 0.183,-0.051 0.21,-0.051L0.345,-0.051ZM0.268,0.173C0.307,0.173 0.341,0.168 0.369,0.159C0.397,0.15 0.419,0.137 0.434,0.122C0.449,0.106 0.456,0.089 0.456,0.069C0.456,0.046 0.446,0.027 0.426,0.013C0.405,-0.001 0.374,-0.008 0.333,-0.008L0.191,-0.008C0.16,-0.008 0.134,-0.001 0.113,0.014C0.092,0.029 0.082,0.048 0.082,0.073C0.082,0.103 0.098,0.127 0.132,0.145C0.165,0.164 0.21,0.173 0.268,0.173ZM0.261,-0.51C0.3,-0.51 0.335,-0.503 0.366,-0.489C0.396,-0.476 0.419,-0.457 0.436,-0.432C0.453,-0.408 0.461,-0.379 0.461,-0.347C0.461,-0.315 0.453,-0.286 0.436,-0.261C0.419,-0.237 0.396,-0.218 0.366,-0.204C0.335,-0.19 0.3,-0.183 0.261,-0.183C0.198,-0.183 0.148,-0.198 0.113,-0.229C0.077,-0.259 0.059,-0.298 0.059,-0.347C0.059,-0.379 0.067,-0.408 0.085,-0.432C0.102,-0.457 0.125,-0.476 0.156,-0.489C0.186,-0.503 0.221,-0.51 0.261,-0.51ZM0.261,-0.469C0.217,-0.469 0.181,-0.458 0.153,-0.435C0.125,-0.413 0.111,-0.384 0.111,-0.347C0.111,-0.31 0.125,-0.281 0.153,-0.258C0.181,-0.236 0.217,-0.224 0.261,-0.224C0.305,-0.224 0.341,-0.236 0.368,-0.258C0.396,-0.281 0.41,-0.31 0.41,-0.347C0.41,-0.384 0.396,-0.413 0.368,-0.435C0.341,-0.458 0.305,-0.469 0.261,-0.469Z" style="fill:white;fill-rule:nonzero;"/>
                </g>
                <g transform="matrix(29,0,0,29,96.802,0)">
                    <path d="M0.265,0.01C0.23,0.01 0.2,0.004 0.172,-0.009C0.145,-0.022 0.123,-0.042 0.107,-0.069C0.092,-0.095 0.084,-0.129 0.084,-0.17L0.084,-0.5L0.134,-0.5L0.134,-0.182C0.134,-0.13 0.146,-0.093 0.171,-0.069C0.196,-0.046 0.231,-0.034 0.277,-0.034C0.303,-0.034 0.328,-0.038 0.349,-0.048C0.371,-0.057 0.39,-0.07 0.405,-0.087C0.421,-0.103 0.432,-0.122 0.441,-0.144C0.449,-0.166 0.453,-0.189 0.453,-0.213L0.453,-0.5L0.503,-0.5L0.503,-0L0.458,-0L0.456,-0.103C0.441,-0.068 0.417,-0.04 0.384,-0.02C0.351,-0 0.311,0.01 0.265,0.01Z" style="fill:white;fill-rule:nonzero;"/>
                </g>
                <g transform="matrix(29,0,0,29,113.97,0)">
                    <path d="M0.114,-0.597C0.102,-0.597 0.091,-0.601 0.084,-0.609C0.076,-0.616 0.072,-0.626 0.072,-0.639C0.072,-0.652 0.076,-0.662 0.084,-0.67C0.091,-0.677 0.102,-0.681 0.114,-0.681C0.127,-0.681 0.137,-0.677 0.145,-0.67C0.153,-0.662 0.156,-0.652 0.156,-0.639C0.156,-0.626 0.153,-0.616 0.145,-0.609C0.137,-0.601 0.127,-0.597 0.114,-0.597ZM0.139,-0.5L0.139,-0L0.089,-0L0.089,-0.5L0.139,-0.5Z" style="fill:white;fill-rule:nonzero;"/>
                </g>
                <g transform="matrix(29,0,0,29,120.582,0)">
                    <path d="M0.258,0.01C0.207,0.01 0.163,-0 0.123,-0.021C0.084,-0.041 0.057,-0.071 0.041,-0.11L0.084,-0.139C0.096,-0.105 0.117,-0.079 0.148,-0.061C0.179,-0.043 0.217,-0.034 0.262,-0.034C0.306,-0.034 0.34,-0.042 0.366,-0.06C0.391,-0.077 0.403,-0.1 0.403,-0.129C0.403,-0.149 0.397,-0.165 0.385,-0.18C0.372,-0.194 0.349,-0.205 0.315,-0.212L0.198,-0.237C0.15,-0.247 0.116,-0.263 0.096,-0.285C0.076,-0.308 0.065,-0.335 0.065,-0.367C0.065,-0.393 0.073,-0.417 0.089,-0.439C0.105,-0.461 0.127,-0.478 0.156,-0.491C0.184,-0.504 0.217,-0.51 0.255,-0.51C0.305,-0.51 0.346,-0.5 0.379,-0.481C0.412,-0.461 0.435,-0.432 0.448,-0.392L0.406,-0.365C0.396,-0.4 0.377,-0.426 0.35,-0.442C0.323,-0.458 0.291,-0.466 0.255,-0.466C0.227,-0.466 0.202,-0.462 0.181,-0.454C0.16,-0.445 0.144,-0.434 0.132,-0.419C0.121,-0.405 0.115,-0.388 0.115,-0.37C0.115,-0.35 0.121,-0.333 0.135,-0.317C0.148,-0.302 0.172,-0.291 0.206,-0.283L0.326,-0.257C0.373,-0.247 0.406,-0.232 0.425,-0.212C0.444,-0.191 0.453,-0.166 0.453,-0.136C0.453,-0.106 0.445,-0.08 0.429,-0.058C0.413,-0.036 0.39,-0.019 0.361,-0.008C0.331,0.004 0.297,0.01 0.258,0.01Z" style="fill:white;fill-rule:nonzero;"/>
                </g>
                <g transform="matrix(29,0,0,29,135.198,0)">
                    <path d="M0.395,-0.329C0.395,-0.372 0.384,-0.406 0.36,-0.43C0.337,-0.454 0.303,-0.466 0.26,-0.466C0.222,-0.466 0.189,-0.458 0.162,-0.441C0.134,-0.425 0.114,-0.398 0.101,-0.36L0.06,-0.386C0.075,-0.426 0.099,-0.456 0.134,-0.478C0.168,-0.499 0.211,-0.51 0.261,-0.51C0.297,-0.51 0.33,-0.504 0.357,-0.491C0.385,-0.478 0.407,-0.458 0.422,-0.433C0.438,-0.407 0.445,-0.376 0.445,-0.338L0.445,-0.088C0.445,-0.053 0.461,-0.035 0.493,-0.035C0.507,-0.035 0.519,-0.037 0.529,-0.042L0.526,-0.002C0.515,0.004 0.5,0.007 0.482,0.007C0.467,0.007 0.452,0.004 0.439,-0.002C0.426,-0.008 0.415,-0.018 0.407,-0.032C0.398,-0.046 0.394,-0.065 0.394,-0.089L0.394,-0.116L0.408,-0.117C0.402,-0.088 0.388,-0.064 0.368,-0.045C0.348,-0.027 0.325,-0.013 0.298,-0.004C0.272,0.005 0.245,0.01 0.218,0.01C0.187,0.01 0.159,0.005 0.134,-0.005C0.109,-0.015 0.09,-0.029 0.076,-0.048C0.062,-0.068 0.055,-0.091 0.055,-0.119C0.055,-0.157 0.068,-0.187 0.093,-0.21C0.118,-0.233 0.153,-0.249 0.198,-0.257L0.405,-0.298L0.405,-0.256L0.223,-0.22C0.184,-0.212 0.155,-0.201 0.135,-0.185C0.116,-0.169 0.106,-0.149 0.106,-0.122C0.106,-0.095 0.117,-0.073 0.137,-0.057C0.157,-0.042 0.187,-0.034 0.225,-0.034C0.244,-0.034 0.264,-0.036 0.284,-0.042C0.304,-0.047 0.322,-0.056 0.339,-0.068C0.356,-0.079 0.37,-0.094 0.38,-0.112C0.39,-0.13 0.395,-0.151 0.395,-0.176L0.395,-0.329Z" style="fill:white;fill-rule:nonzero;"/>
                </g>
                <g transform="matrix(29,0,0,29,150.945,0)">
                    <path d="M0.089,-0L0.089,-0.5L0.134,-0.5L0.138,-0.375L0.13,-0.382C0.139,-0.409 0.153,-0.433 0.172,-0.452C0.191,-0.471 0.213,-0.485 0.239,-0.495C0.265,-0.505 0.293,-0.51 0.323,-0.51C0.361,-0.51 0.393,-0.503 0.422,-0.489C0.451,-0.475 0.473,-0.454 0.489,-0.427C0.506,-0.4 0.514,-0.365 0.514,-0.324L0.514,-0L0.464,-0L0.464,-0.308C0.464,-0.363 0.451,-0.403 0.423,-0.428C0.396,-0.454 0.361,-0.466 0.318,-0.466C0.287,-0.466 0.258,-0.459 0.23,-0.445C0.203,-0.43 0.181,-0.409 0.164,-0.382C0.148,-0.354 0.139,-0.321 0.139,-0.282L0.139,-0L0.089,-0Z" style="fill:white;fill-rule:nonzero;"/>
                </g>
            </g>
        </g>
    </g>
</svg>
