<?xml version="1.0" encoding="UTF-8" standalone="no"?>
<!DOCTYPE svg PUBLIC "-//W3C//DTD SVG 1.1//EN" "http://www.w3.org/Graphics/SVG/1.1/DTD/svg11.dtd">
<svg width="100%" height="100%" viewBox="0 0 357 78" version="1.1" xmlns="http://www.w3.org/2000/svg" xmlns:xlink="http://www.w3.org/1999/xlink" xml:space="preserve" xmlns:serif="http://www.serif.com/" style="fill-rule:evenodd;clip-rule:evenodd;stroke-linejoin:round;stroke-miterlimit:2;">
    <g transform="matrix(1,0,0,1,-56,-181.669045)">
        <g id="logo-horizontal" serif:id="logo horizontal">
            <g id="Group-1" serif:id="Group 1">
                <path id="Vector-2" serif:id="Vector 2" d="M363,253L369,259.5L407.5,232.5L369,205L363,212.5L399,230L363,253Z" style="fill:rgb(189,209,117);fill-rule:nonzero;"/>
                <path id="Vector-3" serif:id="Vector 3" d="M100.5,206.5L94.5,200L56,227L94.5,254.5L100.5,247L64.5,229.5L100.5,206.5Z" style="fill:rgb(189,209,117);fill-rule:nonzero;"/>
                <path id="Vector" d="M382.221,221.931C382.169,222.272 382.153,222.618 382.18,222.964C381.676,222.784 381.53,222.165 381.513,221.634C381.513,221.586 381.52,221.541 381.521,221.493L382.221,221.931ZM385.764,215.018C385.97,215.385 386.178,215.753 386.397,216.133C386.516,216.344 386.646,216.567 386.771,216.783C386.726,216.804 386.681,216.822 386.637,216.846C386.484,216.908 386.343,216.984 386.188,217.057C386.037,217.137 385.889,217.226 385.741,217.313L383.409,215.86C383.476,215.792 383.538,215.719 383.615,215.664C383.878,215.476 384.197,215.374 384.51,215.292C384.897,215.184 385.327,215.076 385.764,215.018ZM388.632,224.116C388.646,224.386 388.649,224.668 388.657,224.945L387.526,224.242C387.755,224.056 387.978,223.855 388.183,223.632C388.325,223.484 388.452,223.318 388.584,223.154C388.601,223.475 388.619,223.796 388.632,224.116ZM388.513,221.757C388.239,222.222 387.931,222.667 387.561,223.058C386.698,223.985 385.495,224.661 384.222,224.71C384.785,224.101 385.35,223.48 385.734,222.76C386.112,222.072 386.326,221.313 386.496,220.548C386.719,219.584 386.872,218.604 386.984,217.615C386.992,217.51 387.004,217.414 387.014,217.316L388.489,219.716C388.484,219.901 388.483,220.08 388.483,220.24C388.476,220.747 388.49,221.254 388.513,221.757ZM382.919,184.116C382.533,184.035 382.179,184.026 381.858,184.084C381.946,183.807 382.077,183.56 382.277,183.376C382.538,183.134 382.874,182.993 383.206,182.864C385.15,182.104 387.226,181.62 389.316,181.673C389.999,181.692 390.684,181.77 391.353,181.91C392.735,182.2 394.056,182.757 395.175,183.609C397.578,185.442 398.805,188.383 399.826,191.215C402.321,198.13 404.23,205.522 403.561,212.765L403.391,212.415L402.253,210.067C401.226,207.934 400.188,205.797 399.15,203.66C398.361,202.026 397.544,200.336 396.641,198.693C395.927,197.4 395.055,195.933 393.699,194.869C392.956,194.286 392.137,193.896 391.265,193.714C390.102,193.47 388.94,193.614 387.904,194.082C388.075,193.881 388.243,193.679 388.401,193.477C388.868,193.347 389.298,193.158 389.689,192.983C389.809,192.929 390.09,192.804 390.274,192.506C390.477,192.176 390.488,191.788 390.308,191.35C390.302,191.337 390.293,191.32 390.286,191.306C390.467,191.123 390.64,190.933 390.797,190.738C391.788,189.504 392.531,187.948 392.313,186.381C392.04,184.423 390.103,182.838 388.118,182.95C386.549,183.04 385.526,183.856 384.945,184.976C384.701,184.827 384.452,184.694 384.203,184.574C383.726,184.348 383.307,184.197 382.919,184.116ZM392.277,248.844C392.379,248.865 392.471,248.885 392.574,248.896C391.876,250.456 391.1,251.979 390.268,253.471C389.654,254.575 388.987,255.68 388.017,256.509C387.738,256.754 387.362,256.976 387.014,256.903C386.972,256.894 386.931,256.881 386.891,256.864C386.435,256.663 386.392,256.053 386.434,255.556C386.921,248.231 388.441,240.966 389.158,233.68C389.177,233.761 389.202,233.84 389.22,233.922C389.276,234.162 389.317,234.405 389.363,234.647C389.447,235.115 389.518,235.587 389.568,236.063C389.574,236.106 389.577,236.148 389.582,236.189C389.723,237.586 389.746,239.01 389.768,240.408L389.769,240.501C389.781,241.156 389.797,241.821 389.819,242.488C389.859,243.732 389.937,244.982 390.143,246.213C390.213,246.639 390.314,247.118 390.537,247.556C390.583,247.645 390.643,247.728 390.7,247.813C390.736,247.867 390.762,247.924 390.803,247.974C390.823,247.999 390.847,248.018 390.868,248.041C390.943,248.127 391.019,248.21 391.105,248.284C391.156,248.327 391.213,248.361 391.266,248.4C391.329,248.444 391.388,248.492 391.455,248.53C391.529,248.574 391.607,248.605 391.683,248.641C391.737,248.665 391.787,248.694 391.842,248.714C391.986,248.768 392.129,248.813 392.277,248.844ZM397.575,230.322C396.956,236.433 395.384,242.443 392.95,248.066C392.774,248.064 392.6,248.047 392.434,248.013C392.053,247.933 391.713,247.758 391.467,247.45C391.173,247.081 391.062,246.541 390.981,246.071C390.678,244.226 390.649,242.291 390.617,240.419C390.571,237.5 390.526,234.475 389.425,231.682C389.397,231.612 389.376,231.557 389.346,231.497C389.524,229.036 389.596,226.563 389.479,224.082C389.44,223.086 389.376,222.084 389.351,221.08C389.705,221.624 390.054,222.142 390.398,222.608C391.285,223.819 392.292,224.955 393.247,226.003C393.485,226.254 393.723,226.5 393.959,226.749L393.948,226.745L394.158,226.958C394.36,227.169 394.56,227.384 394.764,227.592L394.899,227.731L394.935,227.743L396.305,229.129C396.726,229.537 397.151,229.928 397.575,230.322ZM386.527,187.961C387.895,188.949 389.056,190.54 389.523,191.669C389.576,191.796 389.623,191.947 389.55,192.063C389.504,192.138 389.418,192.178 389.336,192.214C388.803,192.454 388.26,192.696 387.678,192.771C387.107,192.843 386.533,192.749 385.968,192.631C385.865,192.609 385.762,192.587 385.66,192.564C385.449,192.518 385.237,192.469 385.028,192.41C384.966,192.2 384.924,191.984 384.907,191.764C384.843,190.928 385.115,190.08 385.653,189.435C385.702,189.375 385.753,189.317 385.805,189.259C386.023,189.014 386.269,188.736 386.431,188.352C386.483,188.228 386.5,188.093 386.527,187.961ZM380.894,186.548C381.054,185.104 381.767,184.735 382.746,184.941C383.082,185.011 383.448,185.148 383.835,185.334C384.378,185.592 384.92,185.893 385.303,186.355C385.684,186.817 385.879,187.476 385.647,188.026C385.508,188.361 385.232,188.618 384.999,188.896C384.325,189.704 383.983,190.777 384.061,191.826C384.142,192.874 384.645,193.886 385.435,194.588C383.543,193.186 381.521,191.599 380.971,189.319C380.755,188.416 380.791,187.471 380.894,186.548ZM401.489,210.43C402.253,212.003 403.007,213.563 403.771,215.136C404.452,216.544 405.133,217.952 405.8,219.377C402.725,221.136 399.003,221.832 395.252,221.045C392.518,220.472 390.023,219.157 388.031,217.275C386.775,215.114 385.523,212.943 384.433,210.702C383.804,209.399 383.218,208.042 383.019,206.61C382.526,203.196 384.215,199.892 385.973,196.93C387.094,195.038 389.118,194.124 391.091,194.538C391.806,194.688 392.517,195.013 393.174,195.531C394.368,196.466 395.174,197.784 395.897,199.096C396.788,200.716 397.587,202.37 398.386,204.024C399.424,206.161 400.462,208.296 401.489,210.43ZM395.04,222.055C399.004,222.887 402.965,222.167 406.23,220.312C407.041,222.063 407.817,223.827 408.525,225.61C405.349,227.602 401.418,228.431 397.444,227.598C396.742,227.451 396.052,227.254 395.372,227.006C394.866,226.489 394.371,225.962 393.876,225.437C392.901,224.37 391.941,223.281 391.082,222.11C390.519,221.35 389.997,220.555 389.499,219.743C391.166,220.843 393.038,221.636 395.04,222.055ZM410.743,232.136C408.713,233.419 406.368,234.224 403.919,234.417C403.919,234.419 403.918,234.421 403.915,234.421C403.913,234.42 403.91,234.415 403.91,234.415C401.425,232.648 399.093,230.663 396.899,228.527C397.009,228.561 397.12,228.584 397.232,228.608C401.401,229.482 405.544,228.644 408.908,226.576C409.605,228.411 410.235,230.26 410.743,232.136ZM411.025,233.178C411.517,235.126 411.889,237.1 412.082,239.112C409.661,238.056 407.373,236.774 405.188,235.305C407.27,234.983 409.251,234.249 411.025,233.178ZM388.047,186.266C387.473,186.146 387.106,185.589 387.226,185.019C387.345,184.45 387.905,184.086 388.479,184.206C389.051,184.327 389.418,184.885 389.299,185.454C389.18,186.023 388.62,186.387 388.047,186.266Z" style="fill:rgb(18,124,104);fill-rule:nonzero;"/>
            </g>
            <g id="carlosguisan-editable" serif:id="carlosguisan editable" transform="matrix(1.516889,0,0,1.516889,108.012934,242.862674)">
                <g transform="matrix(29,0,0,29,0,0)">
                    <path d="M0.291,-0.51C0.325,-0.51 0.355,-0.505 0.382,-0.494C0.408,-0.483 0.431,-0.468 0.45,-0.448C0.469,-0.428 0.483,-0.403 0.493,-0.375L0.446,-0.353C0.436,-0.389 0.417,-0.417 0.391,-0.437C0.364,-0.456 0.331,-0.466 0.29,-0.466C0.253,-0.466 0.221,-0.458 0.193,-0.44C0.165,-0.423 0.143,-0.399 0.128,-0.366C0.112,-0.334 0.105,-0.295 0.105,-0.25C0.105,-0.205 0.112,-0.167 0.128,-0.134C0.143,-0.102 0.164,-0.077 0.192,-0.06C0.22,-0.042 0.252,-0.034 0.289,-0.034C0.317,-0.034 0.343,-0.039 0.365,-0.048C0.388,-0.058 0.407,-0.071 0.422,-0.089C0.437,-0.107 0.447,-0.128 0.452,-0.153L0.498,-0.137C0.489,-0.107 0.475,-0.08 0.456,-0.058C0.436,-0.036 0.412,-0.02 0.384,-0.008C0.356,0.004 0.324,0.01 0.29,0.01C0.244,0.01 0.204,-0 0.168,-0.021C0.133,-0.042 0.105,-0.072 0.085,-0.111C0.065,-0.149 0.055,-0.196 0.055,-0.25C0.055,-0.304 0.065,-0.351 0.085,-0.39C0.106,-0.429 0.134,-0.458 0.169,-0.479C0.205,-0.5 0.246,-0.51 0.291,-0.51Z" style="fill:rgb(18,124,104);fill-rule:nonzero;"/>
                </g>
                <g transform="matrix(29,0,0,29,15.747,0)">
                    <path d="M0.395,-0.329C0.395,-0.372 0.384,-0.406 0.36,-0.43C0.337,-0.454 0.303,-0.466 0.26,-0.466C0.222,-0.466 0.189,-0.458 0.162,-0.441C0.134,-0.425 0.114,-0.398 0.101,-0.36L0.06,-0.386C0.075,-0.426 0.099,-0.456 0.134,-0.478C0.168,-0.499 0.211,-0.51 0.261,-0.51C0.297,-0.51 0.33,-0.504 0.357,-0.491C0.385,-0.478 0.407,-0.458 0.422,-0.433C0.438,-0.407 0.445,-0.376 0.445,-0.338L0.445,-0.088C0.445,-0.053 0.461,-0.035 0.493,-0.035C0.507,-0.035 0.519,-0.037 0.529,-0.042L0.526,-0.002C0.515,0.004 0.5,0.007 0.482,0.007C0.467,0.007 0.452,0.004 0.439,-0.002C0.426,-0.008 0.415,-0.018 0.407,-0.032C0.398,-0.046 0.394,-0.065 0.394,-0.089L0.394,-0.116L0.408,-0.117C0.402,-0.088 0.388,-0.064 0.368,-0.045C0.348,-0.027 0.325,-0.013 0.298,-0.004C0.272,0.005 0.245,0.01 0.218,0.01C0.187,0.01 0.159,0.005 0.134,-0.005C0.109,-0.015 0.09,-0.029 0.076,-0.048C0.062,-0.068 0.055,-0.091 0.055,-0.119C0.055,-0.157 0.068,-0.187 0.093,-0.21C0.118,-0.233 0.153,-0.249 0.198,-0.257L0.405,-0.298L0.405,-0.256L0.223,-0.22C0.184,-0.212 0.155,-0.201 0.135,-0.185C0.116,-0.169 0.106,-0.149 0.106,-0.122C0.106,-0.095 0.117,-0.073 0.137,-0.057C0.157,-0.042 0.187,-0.034 0.225,-0.034C0.244,-0.034 0.264,-0.036 0.284,-0.042C0.304,-0.047 0.322,-0.056 0.339,-0.068C0.356,-0.079 0.37,-0.094 0.38,-0.112C0.39,-0.13 0.395,-0.151 0.395,-0.176L0.395,-0.329Z" style="fill:rgb(18,124,104);fill-rule:nonzero;"/>
                </g>
                <g transform="matrix(29,0,0,29,31.494,0)">
                    <path d="M0.089,-0L0.089,-0.5L0.131,-0.5L0.137,-0.396C0.15,-0.43 0.17,-0.458 0.198,-0.479C0.226,-0.5 0.259,-0.51 0.299,-0.51C0.312,-0.51 0.324,-0.509 0.335,-0.506C0.346,-0.503 0.354,-0.499 0.361,-0.493L0.35,-0.449C0.343,-0.454 0.335,-0.457 0.326,-0.46C0.318,-0.462 0.305,-0.464 0.287,-0.464C0.262,-0.464 0.238,-0.456 0.215,-0.44C0.193,-0.425 0.174,-0.403 0.16,-0.375C0.146,-0.348 0.139,-0.316 0.139,-0.28L0.139,-0L0.089,-0Z" style="fill:rgb(18,124,104);fill-rule:nonzero;"/>
                </g>
                <g transform="matrix(29,0,0,29,42.456,0)">
                    <path d="M0.135,-0.73L0.135,-0.118C0.135,-0.087 0.141,-0.065 0.151,-0.053C0.162,-0.04 0.178,-0.034 0.201,-0.034C0.215,-0.034 0.226,-0.035 0.234,-0.037C0.243,-0.039 0.253,-0.042 0.264,-0.047L0.257,-0.003C0.248,0.001 0.238,0.004 0.227,0.007C0.216,0.009 0.204,0.01 0.191,0.01C0.155,0.01 0.129,-0 0.111,-0.021C0.094,-0.041 0.085,-0.073 0.085,-0.116L0.085,-0.73L0.135,-0.73Z" style="fill:rgb(18,124,104);fill-rule:nonzero;"/>
                </g>
                <g transform="matrix(29,0,0,29,50.286,0)">
                    <path d="M0.293,-0.51C0.34,-0.51 0.381,-0.5 0.416,-0.479C0.452,-0.458 0.48,-0.429 0.5,-0.39C0.521,-0.351 0.531,-0.304 0.531,-0.25C0.531,-0.196 0.521,-0.149 0.5,-0.111C0.48,-0.072 0.452,-0.042 0.416,-0.021C0.381,-0 0.34,0.01 0.293,0.01C0.247,0.01 0.205,-0 0.17,-0.021C0.134,-0.042 0.106,-0.072 0.085,-0.111C0.065,-0.149 0.055,-0.196 0.055,-0.25C0.055,-0.304 0.065,-0.351 0.085,-0.39C0.106,-0.429 0.134,-0.458 0.17,-0.479C0.205,-0.5 0.247,-0.51 0.293,-0.51ZM0.293,-0.467C0.255,-0.467 0.222,-0.458 0.194,-0.441C0.166,-0.423 0.144,-0.399 0.128,-0.366C0.113,-0.334 0.105,-0.295 0.105,-0.25C0.105,-0.205 0.113,-0.167 0.128,-0.134C0.144,-0.102 0.166,-0.077 0.194,-0.059C0.222,-0.042 0.255,-0.033 0.293,-0.033C0.331,-0.033 0.364,-0.042 0.392,-0.059C0.42,-0.077 0.442,-0.102 0.458,-0.134C0.473,-0.167 0.481,-0.205 0.481,-0.25C0.481,-0.295 0.473,-0.334 0.458,-0.366C0.442,-0.399 0.42,-0.423 0.392,-0.441C0.364,-0.458 0.331,-0.467 0.293,-0.467Z" style="fill:rgb(18,124,104);fill-rule:nonzero;"/>
                </g>
                <g transform="matrix(29,0,0,29,67.251,0)">
                    <path d="M0.258,0.01C0.207,0.01 0.163,-0 0.123,-0.021C0.084,-0.041 0.057,-0.071 0.041,-0.11L0.084,-0.139C0.096,-0.105 0.117,-0.079 0.148,-0.061C0.179,-0.043 0.217,-0.034 0.262,-0.034C0.306,-0.034 0.34,-0.042 0.366,-0.06C0.391,-0.077 0.403,-0.1 0.403,-0.129C0.403,-0.149 0.397,-0.165 0.385,-0.18C0.372,-0.194 0.349,-0.205 0.315,-0.212L0.198,-0.237C0.15,-0.247 0.116,-0.263 0.096,-0.285C0.076,-0.308 0.065,-0.335 0.065,-0.367C0.065,-0.393 0.073,-0.417 0.089,-0.439C0.105,-0.461 0.127,-0.478 0.156,-0.491C0.184,-0.504 0.217,-0.51 0.255,-0.51C0.305,-0.51 0.346,-0.5 0.379,-0.481C0.412,-0.461 0.435,-0.432 0.448,-0.392L0.406,-0.365C0.396,-0.4 0.377,-0.426 0.35,-0.442C0.323,-0.458 0.291,-0.466 0.255,-0.466C0.227,-0.466 0.202,-0.462 0.181,-0.454C0.16,-0.445 0.144,-0.434 0.132,-0.419C0.121,-0.405 0.115,-0.388 0.115,-0.37C0.115,-0.35 0.121,-0.333 0.135,-0.317C0.148,-0.302 0.172,-0.291 0.206,-0.283L0.326,-0.257C0.373,-0.247 0.406,-0.232 0.425,-0.212C0.444,-0.191 0.453,-0.166 0.453,-0.136C0.453,-0.106 0.445,-0.08 0.429,-0.058C0.413,-0.036 0.39,-0.019 0.361,-0.008C0.331,0.004 0.297,0.01 0.258,0.01Z" style="fill:rgb(18,124,104);fill-rule:nonzero;"/>
                </g>
                <g transform="matrix(29,0,0,29,81.867,0)">
                    <path d="M0.503,-0.592L0.515,-0.548L0.51,-0.548C0.477,-0.548 0.452,-0.539 0.435,-0.523C0.417,-0.506 0.408,-0.482 0.408,-0.451L0.376,-0.467C0.376,-0.492 0.382,-0.514 0.392,-0.533C0.403,-0.552 0.417,-0.566 0.436,-0.577C0.455,-0.587 0.476,-0.592 0.499,-0.592L0.503,-0.592ZM0.345,-0.051C0.394,-0.051 0.433,-0.041 0.461,-0.02C0.489,0.001 0.503,0.029 0.503,0.063C0.503,0.094 0.493,0.121 0.473,0.143C0.452,0.166 0.424,0.184 0.389,0.196C0.353,0.209 0.313,0.215 0.268,0.215C0.192,0.215 0.135,0.202 0.095,0.176C0.055,0.151 0.035,0.119 0.035,0.08C0.035,0.052 0.045,0.028 0.065,0.007C0.085,-0.014 0.115,-0.026 0.155,-0.03L0.151,-0.021C0.129,-0.027 0.11,-0.037 0.094,-0.051C0.078,-0.065 0.07,-0.085 0.07,-0.111C0.07,-0.139 0.08,-0.162 0.101,-0.18C0.122,-0.197 0.15,-0.208 0.185,-0.21L0.238,-0.192L0.217,-0.192C0.186,-0.19 0.162,-0.183 0.144,-0.17C0.125,-0.157 0.116,-0.14 0.116,-0.119C0.116,-0.096 0.125,-0.079 0.143,-0.068C0.16,-0.057 0.183,-0.051 0.21,-0.051L0.345,-0.051ZM0.268,0.173C0.307,0.173 0.341,0.168 0.369,0.159C0.397,0.15 0.419,0.137 0.434,0.122C0.449,0.106 0.456,0.089 0.456,0.069C0.456,0.046 0.446,0.027 0.426,0.013C0.405,-0.001 0.374,-0.008 0.333,-0.008L0.191,-0.008C0.16,-0.008 0.134,-0.001 0.113,0.014C0.092,0.029 0.082,0.048 0.082,0.073C0.082,0.103 0.098,0.127 0.132,0.145C0.165,0.164 0.21,0.173 0.268,0.173ZM0.261,-0.51C0.3,-0.51 0.335,-0.503 0.366,-0.489C0.396,-0.476 0.419,-0.457 0.436,-0.432C0.453,-0.408 0.461,-0.379 0.461,-0.347C0.461,-0.315 0.453,-0.286 0.436,-0.261C0.419,-0.237 0.396,-0.218 0.366,-0.204C0.335,-0.19 0.3,-0.183 0.261,-0.183C0.198,-0.183 0.148,-0.198 0.113,-0.229C0.077,-0.259 0.059,-0.298 0.059,-0.347C0.059,-0.379 0.067,-0.408 0.085,-0.432C0.102,-0.457 0.125,-0.476 0.156,-0.489C0.186,-0.503 0.221,-0.51 0.261,-0.51ZM0.261,-0.469C0.217,-0.469 0.181,-0.458 0.153,-0.435C0.125,-0.413 0.111,-0.384 0.111,-0.347C0.111,-0.31 0.125,-0.281 0.153,-0.258C0.181,-0.236 0.217,-0.224 0.261,-0.224C0.305,-0.224 0.341,-0.236 0.368,-0.258C0.396,-0.281 0.41,-0.31 0.41,-0.347C0.41,-0.384 0.396,-0.413 0.368,-0.435C0.341,-0.458 0.305,-0.469 0.261,-0.469Z" style="fill:rgb(18,124,104);fill-rule:nonzero;"/>
                </g>
                <g transform="matrix(29,0,0,29,96.802,0)">
                    <path d="M0.265,0.01C0.23,0.01 0.2,0.004 0.172,-0.009C0.145,-0.022 0.123,-0.042 0.107,-0.069C0.092,-0.095 0.084,-0.129 0.084,-0.17L0.084,-0.5L0.134,-0.5L0.134,-0.182C0.134,-0.13 0.146,-0.093 0.171,-0.069C0.196,-0.046 0.231,-0.034 0.277,-0.034C0.303,-0.034 0.328,-0.038 0.349,-0.048C0.371,-0.057 0.39,-0.07 0.405,-0.087C0.421,-0.103 0.432,-0.122 0.441,-0.144C0.449,-0.166 0.453,-0.189 0.453,-0.213L0.453,-0.5L0.503,-0.5L0.503,-0L0.458,-0L0.456,-0.103C0.441,-0.068 0.417,-0.04 0.384,-0.02C0.351,-0 0.311,0.01 0.265,0.01Z" style="fill:rgb(18,124,104);fill-rule:nonzero;"/>
                </g>
                <g transform="matrix(29,0,0,29,113.97,0)">
                    <path d="M0.114,-0.597C0.102,-0.597 0.091,-0.601 0.084,-0.609C0.076,-0.616 0.072,-0.626 0.072,-0.639C0.072,-0.652 0.076,-0.662 0.084,-0.67C0.091,-0.677 0.102,-0.681 0.114,-0.681C0.127,-0.681 0.137,-0.677 0.145,-0.67C0.153,-0.662 0.156,-0.652 0.156,-0.639C0.156,-0.626 0.153,-0.616 0.145,-0.609C0.137,-0.601 0.127,-0.597 0.114,-0.597ZM0.139,-0.5L0.139,-0L0.089,-0L0.089,-0.5L0.139,-0.5Z" style="fill:rgb(18,124,104);fill-rule:nonzero;"/>
                </g>
                <g transform="matrix(29,0,0,29,120.582,0)">
                    <path d="M0.258,0.01C0.207,0.01 0.163,-0 0.123,-0.021C0.084,-0.041 0.057,-0.071 0.041,-0.11L0.084,-0.139C0.096,-0.105 0.117,-0.079 0.148,-0.061C0.179,-0.043 0.217,-0.034 0.262,-0.034C0.306,-0.034 0.34,-0.042 0.366,-0.06C0.391,-0.077 0.403,-0.1 0.403,-0.129C0.403,-0.149 0.397,-0.165 0.385,-0.18C0.372,-0.194 0.349,-0.205 0.315,-0.212L0.198,-0.237C0.15,-0.247 0.116,-0.263 0.096,-0.285C0.076,-0.308 0.065,-0.335 0.065,-0.367C0.065,-0.393 0.073,-0.417 0.089,-0.439C0.105,-0.461 0.127,-0.478 0.156,-0.491C0.184,-0.504 0.217,-0.51 0.255,-0.51C0.305,-0.51 0.346,-0.5 0.379,-0.481C0.412,-0.461 0.435,-0.432 0.448,-0.392L0.406,-0.365C0.396,-0.4 0.377,-0.426 0.35,-0.442C0.323,-0.458 0.291,-0.466 0.255,-0.466C0.227,-0.466 0.202,-0.462 0.181,-0.454C0.16,-0.445 0.144,-0.434 0.132,-0.419C0.121,-0.405 0.115,-0.388 0.115,-0.37C0.115,-0.35 0.121,-0.333 0.135,-0.317C0.148,-0.302 0.172,-0.291 0.206,-0.283L0.326,-0.257C0.373,-0.247 0.406,-0.232 0.425,-0.212C0.444,-0.191 0.453,-0.166 0.453,-0.136C0.453,-0.106 0.445,-0.08 0.429,-0.058C0.413,-0.036 0.39,-0.019 0.361,-0.008C0.331,0.004 0.297,0.01 0.258,0.01Z" style="fill:rgb(18,124,104);fill-rule:nonzero;"/>
                </g>
                <g transform="matrix(29,0,0,29,135.198,0)">
                    <path d="M0.395,-0.329C0.395,-0.372 0.384,-0.406 0.36,-0.43C0.337,-0.454 0.303,-0.466 0.26,-0.466C0.222,-0.466 0.189,-0.458 0.162,-0.441C0.134,-0.425 0.114,-0.398 0.101,-0.36L0.06,-0.386C0.075,-0.426 0.099,-0.456 0.134,-0.478C0.168,-0.499 0.211,-0.51 0.261,-0.51C0.297,-0.51 0.33,-0.504 0.357,-0.491C0.385,-0.478 0.407,-0.458 0.422,-0.433C0.438,-0.407 0.445,-0.376 0.445,-0.338L0.445,-0.088C0.445,-0.053 0.461,-0.035 0.493,-0.035C0.507,-0.035 0.519,-0.037 0.529,-0.042L0.526,-0.002C0.515,0.004 0.5,0.007 0.482,0.007C0.467,0.007 0.452,0.004 0.439,-0.002C0.426,-0.008 0.415,-0.018 0.407,-0.032C0.398,-0.046 0.394,-0.065 0.394,-0.089L0.394,-0.116L0.408,-0.117C0.402,-0.088 0.388,-0.064 0.368,-0.045C0.348,-0.027 0.325,-0.013 0.298,-0.004C0.272,0.005 0.245,0.01 0.218,0.01C0.187,0.01 0.159,0.005 0.134,-0.005C0.109,-0.015 0.09,-0.029 0.076,-0.048C0.062,-0.068 0.055,-0.091 0.055,-0.119C0.055,-0.157 0.068,-0.187 0.093,-0.21C0.118,-0.233 0.153,-0.249 0.198,-0.257L0.405,-0.298L0.405,-0.256L0.223,-0.22C0.184,-0.212 0.155,-0.201 0.135,-0.185C0.116,-0.169 0.106,-0.149 0.106,-0.122C0.106,-0.095 0.117,-0.073 0.137,-0.057C0.157,-0.042 0.187,-0.034 0.225,-0.034C0.244,-0.034 0.264,-0.036 0.284,-0.042C0.304,-0.047 0.322,-0.056 0.339,-0.068C0.356,-0.079 0.37,-0.094 0.38,-0.112C0.39,-0.13 0.395,-0.151 0.395,-0.176L0.395,-0.329Z" style="fill:rgb(18,124,104);fill-rule:nonzero;"/>
                </g>
                <g transform="matrix(29,0,0,29,150.945,0)">
                    <path d="M0.089,-0L0.089,-0.5L0.134,-0.5L0.138,-0.375L0.13,-0.382C0.139,-0.409 0.153,-0.433 0.172,-0.452C0.191,-0.471 0.213,-0.485 0.239,-0.495C0.265,-0.505 0.293,-0.51 0.323,-0.51C0.361,-0.51 0.393,-0.503 0.422,-0.489C0.451,-0.475 0.473,-0.454 0.489,-0.427C0.506,-0.4 0.514,-0.365 0.514,-0.324L0.514,-0L0.464,-0L0.464,-0.308C0.464,-0.363 0.451,-0.403 0.423,-0.428C0.396,-0.454 0.361,-0.466 0.318,-0.466C0.287,-0.466 0.258,-0.459 0.23,-0.445C0.203,-0.43 0.181,-0.409 0.164,-0.382C0.148,-0.354 0.139,-0.321 0.139,-0.282L0.139,-0L0.089,-0Z" style="fill:rgb(18,124,104);fill-rule:nonzero;"/>
                </g>
            </g>
            <path id="carlosguisan" d="M120.804,220.56C122.3,220.56 123.635,220.795 124.808,221.264C125.981,221.733 126.979,222.408 127.8,223.288C128.621,224.168 129.252,225.239 129.692,226.5L127.624,227.468C127.155,225.884 126.333,224.667 125.16,223.816C124.016,222.936 122.549,222.496 120.76,222.496C119.147,222.496 117.724,222.877 116.492,223.64C115.26,224.373 114.307,225.459 113.632,226.896C112.957,228.304 112.62,230.005 112.62,232C112.62,233.965 112.957,235.667 113.632,237.104C114.307,238.541 115.245,239.641 116.448,240.404C117.651,241.137 119.073,241.504 120.716,241.504C121.948,241.504 123.063,241.299 124.06,240.888C125.087,240.477 125.923,239.876 126.568,239.084C127.243,238.292 127.683,237.353 127.888,236.268L129.912,236.972C129.531,238.321 128.9,239.48 128.02,240.448C127.169,241.416 126.128,242.164 124.896,242.692C123.664,243.191 122.285,243.44 120.76,243.44C118.765,243.44 116.976,242.985 115.392,242.076C113.837,241.167 112.62,239.861 111.74,238.16C110.86,236.429 110.42,234.376 110.42,232C110.42,229.624 110.86,227.585 111.74,225.884C112.649,224.153 113.881,222.833 115.436,221.924C117.02,221.015 118.809,220.56 120.804,220.56ZM149.271,228.524C149.271,226.617 148.757,225.136 147.731,224.08C146.704,223.024 145.237,222.496 143.331,222.496C141.659,222.496 140.221,222.863 139.019,223.596C137.816,224.3 136.921,225.488 136.335,227.16L134.531,226.016C135.176,224.285 136.247,222.951 137.743,222.012C139.268,221.044 141.145,220.56 143.375,220.56C144.988,220.56 146.396,220.853 147.599,221.44C148.831,221.997 149.784,222.833 150.459,223.948C151.133,225.063 151.471,226.456 151.471,228.128L151.471,239.128C151.471,240.683 152.175,241.46 153.583,241.46C154.199,241.46 154.727,241.357 155.167,241.152L155.035,242.912C154.536,243.176 153.891,243.308 153.099,243.308C152.424,243.308 151.793,243.176 151.207,242.912C150.62,242.648 150.136,242.208 149.755,241.592C149.403,240.976 149.227,240.14 149.227,239.084L149.227,237.896L149.843,237.852C149.579,239.113 148.992,240.169 148.083,241.02C147.203,241.841 146.176,242.457 145.003,242.868C143.829,243.249 142.656,243.44 141.483,243.44C140.104,243.44 138.872,243.22 137.787,242.78C136.701,242.34 135.851,241.709 135.235,240.888C134.619,240.037 134.311,238.996 134.311,237.764C134.311,236.121 134.853,234.801 135.939,233.804C137.053,232.777 138.608,232.073 140.603,231.692L149.711,229.888L149.711,231.736L141.703,233.32C139.972,233.672 138.681,234.185 137.831,234.86C136.98,235.535 136.555,236.459 136.555,237.632C136.555,238.835 137.009,239.788 137.919,240.492C138.828,241.167 140.119,241.504 141.791,241.504C142.641,241.504 143.507,241.387 144.387,241.152C145.267,240.917 146.073,240.551 146.807,240.052C147.569,239.524 148.171,238.879 148.611,238.116C149.051,237.324 149.271,236.371 149.271,235.256L149.271,228.524ZM159.697,243L159.697,221L161.545,221L161.809,225.62C162.367,224.065 163.261,222.833 164.493,221.924C165.725,221.015 167.207,220.56 168.937,220.56C169.524,220.56 170.052,220.619 170.521,220.736C170.991,220.853 171.372,221.044 171.665,221.308L171.181,223.244C170.859,223.039 170.507,222.877 170.125,222.76C169.744,222.643 169.172,222.584 168.409,222.584C167.295,222.584 166.239,222.936 165.241,223.64C164.244,224.315 163.437,225.268 162.821,226.5C162.205,227.703 161.897,229.096 161.897,230.68L161.897,243L159.697,243ZM178.35,210.88L178.35,237.808C178.35,239.157 178.585,240.111 179.054,240.668C179.523,241.225 180.257,241.504 181.254,241.504C181.87,241.504 182.354,241.46 182.706,241.372C183.087,241.284 183.527,241.137 184.026,240.932L183.718,242.868C183.337,243.044 182.897,243.176 182.398,243.264C181.929,243.381 181.401,243.44 180.814,243.44C179.259,243.44 178.086,243 177.294,242.12C176.531,241.211 176.15,239.803 176.15,237.896L176.15,210.88L178.35,210.88ZM197.205,220.56C199.258,220.56 201.062,221.015 202.617,221.924C204.201,222.833 205.433,224.153 206.312,225.884C207.222,227.585 207.677,229.624 207.677,232C207.677,234.376 207.222,236.429 206.312,238.16C205.433,239.861 204.201,241.167 202.617,242.076C201.062,242.985 199.258,243.44 197.205,243.44C195.151,243.44 193.333,242.985 191.749,242.076C190.194,241.167 188.962,239.861 188.053,238.16C187.173,236.429 186.733,234.376 186.733,232C186.733,229.624 187.173,227.585 188.053,225.884C188.962,224.153 190.194,222.833 191.749,221.924C193.333,221.015 195.151,220.56 197.205,220.56ZM197.205,222.452C195.533,222.452 194.081,222.833 192.849,223.596C191.617,224.359 190.649,225.459 189.945,226.896C189.27,228.304 188.933,230.005 188.933,232C188.933,233.965 189.27,235.667 189.945,237.104C190.649,238.541 191.617,239.641 192.849,240.404C194.081,241.167 195.533,241.548 197.205,241.548C198.877,241.548 200.329,241.167 201.561,240.404C202.793,239.641 203.746,238.541 204.421,237.104C205.125,235.667 205.477,233.965 205.477,232C205.477,230.005 205.125,228.304 204.421,226.896C203.746,225.459 202.793,224.359 201.561,223.596C200.329,222.833 198.877,222.452 197.205,222.452ZM221.403,243.44C219.173,243.44 217.193,242.985 215.463,242.076C213.761,241.167 212.559,239.861 211.855,238.16L213.747,236.884C214.275,238.351 215.213,239.495 216.563,240.316C217.941,241.108 219.613,241.504 221.579,241.504C223.515,241.504 225.025,241.123 226.111,240.36C227.225,239.597 227.783,238.585 227.783,237.324C227.783,236.473 227.504,235.74 226.947,235.124C226.419,234.479 225.407,233.995 223.911,233.672L218.763,232.572C216.651,232.132 215.14,231.428 214.231,230.46C213.351,229.463 212.911,228.26 212.911,226.852C212.911,225.679 213.263,224.623 213.967,223.684C214.671,222.745 215.639,221.997 216.871,221.44C218.132,220.853 219.599,220.56 221.271,220.56C223.471,220.56 225.289,221 226.727,221.88C228.164,222.731 229.176,224.021 229.763,225.752L227.915,226.94C227.475,225.385 226.653,224.256 225.451,223.552C224.277,222.848 222.884,222.496 221.271,222.496C220.039,222.496 218.953,222.687 218.015,223.068C217.105,223.42 216.387,223.919 215.859,224.564C215.36,225.18 215.111,225.899 215.111,226.72C215.111,227.571 215.404,228.348 215.991,229.052C216.577,229.727 217.619,230.225 219.115,230.548L224.395,231.692C226.477,232.132 227.929,232.807 228.751,233.716C229.572,234.596 229.983,235.696 229.983,237.016C229.983,238.336 229.631,239.48 228.927,240.448C228.223,241.416 227.225,242.164 225.935,242.692C224.644,243.191 223.133,243.44 221.403,243.44ZM254.355,216.952L254.883,218.888L254.663,218.888C253.225,218.888 252.111,219.269 251.319,220.032C250.556,220.765 250.175,221.807 250.175,223.156L248.767,222.452C248.767,221.337 249.001,220.369 249.471,219.548C249.94,218.727 250.585,218.096 251.407,217.656C252.228,217.187 253.152,216.952 254.179,216.952L254.355,216.952ZM247.403,240.756C249.573,240.756 251.275,241.211 252.507,242.12C253.739,243.029 254.355,244.247 254.355,245.772C254.355,247.121 253.9,248.295 252.991,249.292C252.111,250.289 250.893,251.067 249.339,251.624C247.784,252.181 246.009,252.46 244.015,252.46C240.7,252.46 238.163,251.888 236.403,250.744C234.643,249.629 233.763,248.221 233.763,246.52C233.763,245.288 234.203,244.217 235.083,243.308C235.992,242.399 237.312,241.856 239.043,241.68L238.867,242.076C237.928,241.812 237.092,241.372 236.359,240.756C235.655,240.14 235.303,239.26 235.303,238.116C235.303,236.884 235.757,235.887 236.667,235.124C237.605,234.332 238.837,233.877 240.363,233.76L242.695,234.552L241.771,234.552C240.421,234.64 239.336,234.977 238.515,235.564C237.723,236.121 237.327,236.855 237.327,237.764C237.327,238.761 237.708,239.509 238.471,240.008C239.263,240.507 240.26,240.756 241.463,240.756L247.403,240.756ZM244.015,250.612C245.745,250.612 247.227,250.407 248.459,249.996C249.691,249.585 250.629,249.028 251.275,248.324C251.949,247.649 252.287,246.887 252.287,246.036C252.287,245.009 251.832,244.188 250.923,243.572C250.043,242.956 248.693,242.648 246.875,242.648L240.627,242.648C239.248,242.648 238.104,242.971 237.195,243.616C236.285,244.261 235.831,245.127 235.831,246.212C235.831,247.532 236.549,248.588 237.987,249.38C239.453,250.201 241.463,250.612 244.015,250.612ZM243.707,220.56C245.437,220.56 246.963,220.868 248.283,221.484C249.632,222.071 250.673,222.907 251.407,223.992C252.14,225.048 252.507,226.295 252.507,227.732C252.507,229.14 252.14,230.401 251.407,231.516C250.673,232.601 249.632,233.452 248.283,234.068C246.963,234.655 245.437,234.948 243.707,234.948C240.92,234.948 238.735,234.288 237.151,232.968C235.596,231.619 234.819,229.873 234.819,227.732C234.819,226.295 235.185,225.048 235.919,223.992C236.681,222.907 237.723,222.071 239.043,221.484C240.392,220.868 241.947,220.56 243.707,220.56ZM243.707,222.364C241.771,222.364 240.187,222.863 238.955,223.86C237.723,224.828 237.107,226.119 237.107,227.732C237.107,229.345 237.723,230.651 238.955,231.648C240.187,232.645 241.771,233.144 243.707,233.144C245.643,233.144 247.212,232.645 248.415,231.648C249.647,230.651 250.263,229.345 250.263,227.732C250.263,226.119 249.647,224.828 248.415,223.86C247.212,222.863 245.643,222.364 243.707,222.364ZM266.527,243.44C265.002,243.44 263.638,243.161 262.435,242.604C261.233,242.047 260.279,241.181 259.575,240.008C258.901,238.805 258.563,237.309 258.563,235.52L258.563,221L260.763,221L260.763,234.992C260.763,237.28 261.306,238.937 262.391,239.964C263.506,240.991 265.061,241.504 267.055,241.504C268.229,241.504 269.285,241.299 270.223,240.888C271.191,240.477 272.013,239.905 272.687,239.172C273.362,238.439 273.875,237.603 274.227,236.664C274.609,235.725 274.799,234.713 274.799,233.628L274.799,221L276.999,221L276.999,243L275.019,243L274.931,238.468C274.286,240.023 273.23,241.24 271.763,242.12C270.297,243 268.551,243.44 266.527,243.44ZM285.922,216.732C285.365,216.732 284.91,216.571 284.558,216.248C284.236,215.896 284.074,215.441 284.074,214.884C284.074,214.327 284.236,213.887 284.558,213.564C284.91,213.212 285.365,213.036 285.922,213.036C286.48,213.036 286.92,213.212 287.242,213.564C287.594,213.887 287.77,214.327 287.77,214.884C287.77,215.441 287.594,215.896 287.242,216.248C286.92,216.571 286.48,216.732 285.922,216.732ZM287.022,221L287.022,243L284.822,243L284.822,221L287.022,221ZM302.27,243.44C300.041,243.44 298.061,242.985 296.33,242.076C294.629,241.167 293.426,239.861 292.722,238.16L294.614,236.884C295.142,238.351 296.081,239.495 297.43,240.316C298.809,241.108 300.481,241.504 302.446,241.504C304.382,241.504 305.893,241.123 306.978,240.36C308.093,239.597 308.65,238.585 308.65,237.324C308.65,236.473 308.371,235.74 307.814,235.124C307.286,234.479 306.274,233.995 304.778,233.672L299.63,232.572C297.518,232.132 296.007,231.428 295.098,230.46C294.218,229.463 293.778,228.26 293.778,226.852C293.778,225.679 294.13,224.623 294.834,223.684C295.538,222.745 296.506,221.997 297.738,221.44C298.999,220.853 300.466,220.56 302.138,220.56C304.338,220.56 306.157,221 307.594,221.88C309.031,222.731 310.043,224.021 310.63,225.752L308.782,226.94C308.342,225.385 307.521,224.256 306.318,223.552C305.145,222.848 303.751,222.496 302.138,222.496C300.906,222.496 299.821,222.687 298.882,223.068C297.973,223.42 297.254,223.919 296.726,224.564C296.227,225.18 295.978,225.899 295.978,226.72C295.978,227.571 296.271,228.348 296.858,229.052C297.445,229.727 298.486,230.225 299.982,230.548L305.262,231.692C307.345,232.132 308.797,232.807 309.618,233.716C310.439,234.596 310.85,235.696 310.85,237.016C310.85,238.336 310.498,239.48 309.794,240.448C309.09,241.416 308.093,242.164 306.802,242.692C305.511,243.191 304.001,243.44 302.27,243.44ZM330.47,228.524C330.47,226.617 329.957,225.136 328.93,224.08C327.903,223.024 326.437,222.496 324.53,222.496C322.858,222.496 321.421,222.863 320.218,223.596C319.015,224.3 318.121,225.488 317.534,227.16L315.73,226.016C316.375,224.285 317.446,222.951 318.942,222.012C320.467,221.044 322.345,220.56 324.574,220.56C326.187,220.56 327.595,220.853 328.798,221.44C330.03,221.997 330.983,222.833 331.658,223.948C332.333,225.063 332.67,226.456 332.67,228.128L332.67,239.128C332.67,240.683 333.374,241.46 334.782,241.46C335.398,241.46 335.926,241.357 336.366,241.152L336.234,242.912C335.735,243.176 335.09,243.308 334.298,243.308C333.623,243.308 332.993,243.176 332.406,242.912C331.819,242.648 331.335,242.208 330.954,241.592C330.602,240.976 330.426,240.14 330.426,239.084L330.426,237.896L331.042,237.852C330.778,239.113 330.191,240.169 329.282,241.02C328.402,241.841 327.375,242.457 326.202,242.868C325.029,243.249 323.855,243.44 322.682,243.44C321.303,243.44 320.071,243.22 318.986,242.78C317.901,242.34 317.05,241.709 316.434,240.888C315.818,240.037 315.51,238.996 315.51,237.764C315.51,236.121 316.053,234.801 317.138,233.804C318.253,232.777 319.807,232.073 321.802,231.692L330.91,229.888L330.91,231.736L322.902,233.32C321.171,233.672 319.881,234.185 319.03,234.86C318.179,235.535 317.754,236.459 317.754,237.632C317.754,238.835 318.209,239.788 319.118,240.492C320.027,241.167 321.318,241.504 322.99,241.504C323.841,241.504 324.706,241.387 325.586,241.152C326.466,240.917 327.273,240.551 328.006,240.052C328.769,239.524 329.37,238.879 329.81,238.116C330.25,237.324 330.47,236.371 330.47,235.256L330.47,228.524ZM340.896,243L340.896,221L342.876,221L343.052,226.5L342.7,226.192C343.111,224.989 343.727,223.977 344.548,223.156C345.37,222.305 346.352,221.66 347.496,221.22C348.64,220.78 349.872,220.56 351.192,220.56C352.835,220.56 354.287,220.868 355.548,221.484C356.81,222.1 357.792,223.009 358.496,224.212C359.23,225.415 359.596,226.925 359.596,228.744L359.596,243L357.396,243L357.396,229.448C357.396,227.043 356.795,225.283 355.592,224.168C354.419,223.053 352.879,222.496 350.972,222.496C349.594,222.496 348.303,222.819 347.1,223.464C345.927,224.08 344.959,224.989 344.196,226.192C343.463,227.395 343.096,228.861 343.096,230.592L343.096,243L340.896,243Z" style="fill:rgb(18,124,104);fill-rule:nonzero;"/>
        </g>
    </g>
</svg>
